<?xml version="1.0" encoding="UTF-8" standalone="no"?>
<!-- Created with Inkscape (http://www.inkscape.org/) -->

<svg
   xmlns:dc="http://purl.org/dc/elements/1.1/"
   xmlns:cc="http://creativecommons.org/ns#"
   xmlns:rdf="http://www.w3.org/1999/02/22-rdf-syntax-ns#"
   xmlns:svg="http://www.w3.org/2000/svg"
   xmlns="http://www.w3.org/2000/svg"
   xmlns:sodipodi="http://sodipodi.sourceforge.net/DTD/sodipodi-0.dtd"
   xmlns:inkscape="http://www.inkscape.org/namespaces/inkscape"
   width="838.75"
   height="545"
   id="svg7962"
   version="1.1"
   inkscape:version="0.48.2 r9819"
   sodipodi:docname="context.svg">
  <defs
     id="defs7964">
    <clipPath
       id="clipPath8470"
       clipPathUnits="userSpaceOnUse">
      <path
         id="path8472"
         d="M 0,0 671,0 671,436 0,436 0,0 z"
         inkscape:connector-curvature="0" />
    </clipPath>
    <linearGradient
       id="linearGradient8458"
       spreadMethod="pad"
       gradientTransform="matrix(7.874016e-5,0,0,-7.874016e-5,441.25,98.75)"
       gradientUnits="userSpaceOnUse"
       y2="360362.5"
       x2="936625"
       y1="360362.5"
       x1="0">
      <stop
         id="stop8460"
         offset="0"
         style="stop-opacity:1;stop-color:#00fdff" />
      <stop
         id="stop8462"
         offset="1"
         style="stop-opacity:1;stop-color:#ff2600" />
    </linearGradient>
    <clipPath
       id="clipPath8446"
       clipPathUnits="userSpaceOnUse">
      <path
         id="path8448"
         clip-rule="evenodd"
         d="m 441.25,70.37496 20.6053,28.37504 0,-12.85016 32.5394,0 0,12.85016 L 515,70.37496 494.3947,42 l 0,12.85016 -32.5394,0 0,-12.85016 -20.6053,28.37496 z"
         inkscape:connector-curvature="0" />
    </clipPath>
    <clipPath
       id="clipPath8282"
       clipPathUnits="userSpaceOnUse">
      <path
         id="path8284"
         d="M 0,0 671,0 671,436 0,436 0,0 z"
         inkscape:connector-curvature="0" />
    </clipPath>
    <linearGradient
       id="linearGradient8270"
       spreadMethod="pad"
       gradientTransform="matrix(7.874016e-5,0,0,-7.874016e-5,225.75,98.75)"
       gradientUnits="userSpaceOnUse"
       y2="360362.5"
       x2="936625"
       y1="360362.5"
       x1="0">
      <stop
         id="stop8272"
         offset="0"
         style="stop-opacity:1;stop-color:#00f900" />
      <stop
         id="stop8274"
         offset="1"
         style="stop-opacity:1;stop-color:#00fdff" />
    </linearGradient>
    <clipPath
       id="clipPath8258"
       clipPathUnits="userSpaceOnUse">
      <path
         id="path8260"
         clip-rule="evenodd"
         d="m 225.75,70.37496 20.6054,28.37504 0,-12.85016 32.5393,0 0,12.85016 L 299.5,70.37496 278.8947,42 l 0,12.85016 -32.5393,0 0,-12.85016 -20.6054,28.37496 z"
         inkscape:connector-curvature="0" />
    </clipPath>
    <clipPath
       id="clipPath8056"
       clipPathUnits="userSpaceOnUse">
      <path
         id="path8058"
         d="M 0,0 671,0 671,436 0,436 0,0 z"
         inkscape:connector-curvature="0" />
    </clipPath>
  </defs>
  <sodipodi:namedview
     id="base"
     pagecolor="#ffffff"
     bordercolor="#666666"
     borderopacity="1.0"
     inkscape:pageopacity="0.0"
     inkscape:pageshadow="2"
     inkscape:zoom="1.3937407"
     inkscape:cx="421.62499"
     inkscape:cy="232.59255"
     inkscape:document-units="px"
     inkscape:current-layer="layer1"
     showgrid="false"
     fit-margin-top="0"
     fit-margin-left="0"
     fit-margin-right="0"
     fit-margin-bottom="0"
     inkscape:window-width="1330"
     inkscape:window-height="954"
     inkscape:window-x="113"
     inkscape:window-y="71"
     inkscape:window-maximized="0" />
  <metadata
     id="metadata7967">
    <rdf:RDF>
      <cc:Work
         rdf:about="">
        <dc:format>image/svg+xml</dc:format>
        <dc:type
           rdf:resource="http://purl.org/dc/dcmitype/StillImage" />
        <dc:title></dc:title>
      </cc:Work>
    </rdf:RDF>
  </metadata>
  <g
     inkscape:label="Layer 1"
     inkscape:groupmode="layer"
     id="layer1"
     transform="translate(44.375,-259.86218)">
    <g
       id="g8050"
       transform="matrix(1.25,0,0,-1.25,-44.375,804.86218)" />
    <path
       inkscape:connector-curvature="0"
       d="m -44.375,804.86218 838.75,0 0,-545 -838.75,0 0,545 z"
       style="fill:#ffffff;fill-opacity:0;fill-rule:evenodd;stroke:none"
       id="path8060" />
    <g
       id="g8092"
       transform="matrix(1.25,0,0,-1.25,257.125,781.86219)" />
    <g
       id="g8100"
       transform="matrix(1.25,0,0,-1.25,257.125,781.86219)" />
    <g
       id="g8102"
       transform="matrix(1.25,0,0,-1.25,-35.375,264.51843)">
      <text
         transform="matrix(1,0,0,-1,0,-22.79999)"
         id="text8104">
        <tspan
           style="font-size:24px;font-variant:normal;font-weight:normal;writing-mode:lr-tb;fill:#003399;fill-opacity:1;fill-rule:nonzero;stroke:none;font-family:Delicious;-inkscape-font-specification:Delicious-Roman"
           x="0"
           y="0"
           id="tspan8106">•</tspan>
      </text>
    </g>
    <g
       id="g8108"
       transform="matrix(1.25,0,0,-1.25,-35.375,264.51843)">
      <text
         transform="matrix(1,0,0,-1,10.17599,-22.79999)"
         id="text8110">
        <tspan
           style="font-size:24px;font-variant:normal;font-weight:normal;writing-mode:lr-tb;fill:#0048aa;fill-opacity:1;fill-rule:nonzero;stroke:none;font-family:Helvetica;-inkscape-font-specification:Helvetica"
           x="0"
           y="0"
           id="tspan8112"> </tspan>
      </text>
    </g>
    <g
       id="g8114"
       transform="matrix(1.25,0,0,-1.25,-35.375,264.51843)">
      <text
         transform="matrix(1,0,0,-1,27.00002,-22.79999)"
         id="text8116">
        <tspan
           style="font-size:24px;font-variant:normal;font-weight:normal;writing-mode:lr-tb;fill:#003399;fill-opacity:1;fill-rule:nonzero;stroke:none;font-family:Delicious;-inkscape-font-specification:Delicious-Roman"
           x="0 10.416 22.128 28.992001 36.335999 52.416 63.599998 71.255997 82.559998 89.760002 100.656 113.112 124.032 129.744 142.2 153.504 164.808 172.464 178.17599 190.632 201.552"
           y="0"
           sodipodi:role="line"
           id="tspan8118">Software Engineering</tspan>
      </text>
    </g>
    <g
       id="g8120"
       transform="matrix(1.25,0,0,-1.25,-35.375,298.26843)">
      <text
         transform="matrix(1,0,0,-1,0,-37.2)"
         id="text8122">
        <tspan
           style="font-size:24px;font-variant:normal;font-weight:normal;writing-mode:lr-tb;fill:#003399;fill-opacity:1;fill-rule:nonzero;stroke:none;font-family:Delicious;-inkscape-font-specification:Delicious-Roman"
           x="0"
           y="0"
           id="tspan8124">•</tspan>
      </text>
    </g>
    <g
       id="g8126"
       transform="matrix(1.25,0,0,-1.25,-35.375,298.26843)">
      <text
         transform="matrix(1,0,0,-1,10.17599,-37.2)"
         id="text8128">
        <tspan
           style="font-size:24px;font-variant:normal;font-weight:normal;writing-mode:lr-tb;fill:#0048aa;fill-opacity:1;fill-rule:nonzero;stroke:none;font-family:Helvetica;-inkscape-font-specification:Helvetica"
           x="0"
           y="0"
           id="tspan8130"> </tspan>
      </text>
    </g>
    <g
       id="g8132"
       transform="matrix(1.25,0,0,-1.25,-35.375,298.26843)">
      <text
         transform="matrix(1,0,0,-1,27.00002,-37.2)"
         id="text8134">
        <tspan
           style="font-size:24px;font-variant:normal;font-weight:normal;writing-mode:lr-tb;fill:#003399;fill-opacity:1;fill-rule:nonzero;stroke:none;font-family:Delicious;-inkscape-font-specification:Delicious-Roman"
           x="0 11.736 19.392 31.104 42.023998 49.68 60.863998 79.367996 97.872002 103.584 116.04 126.96 134.16 143.328 154.51199 166.968 177.888 190.34399 201.528 212.448 223.752 233.832"
           y="0"
           sodipodi:role="line"
           id="tspan8136">Programming Languages</tspan>
      </text>
    </g>
    <g
       id="g8138"
       transform="matrix(1.25,0,0,-1.25,-35.375,350.76843)">
      <text
         transform="matrix(1,0,0,-1,0,-37.2)"
         id="text8140">
        <tspan
           style="font-size:24px;font-variant:normal;font-weight:normal;writing-mode:lr-tb;fill:#003399;fill-opacity:1;fill-rule:nonzero;stroke:none;font-family:Delicious;-inkscape-font-specification:Delicious-Roman"
           x="0"
           y="0"
           id="tspan8142">•</tspan>
      </text>
    </g>
    <g
       id="g8144"
       transform="matrix(1.25,0,0,-1.25,-35.375,350.76843)">
      <text
         transform="matrix(1,0,0,-1,10.17599,-37.2)"
         id="text8146">
        <tspan
           style="font-size:24px;font-variant:normal;font-weight:normal;writing-mode:lr-tb;fill:#0048aa;fill-opacity:1;fill-rule:nonzero;stroke:none;font-family:Helvetica;-inkscape-font-specification:Helvetica"
           x="0"
           y="0"
           id="tspan8148"> </tspan>
      </text>
    </g>
    <g
       id="g8150"
       transform="matrix(1.25,0,0,-1.25,-35.375,350.76843)">
      <text
         transform="matrix(1,0,0,-1,27.00002,-37.2)"
         id="text8152">
        <tspan
           style="font-size:24px;font-variant:normal;font-weight:normal;writing-mode:lr-tb;fill:#003399;fill-opacity:1;fill-rule:nonzero;stroke:none;font-family:Delicious;-inkscape-font-specification:Delicious-Roman"
           x="0 12.24 17.903999 28.823999 40.535999 48.192001 53.903999 61.248001 73.704002 92.208 102.288 109.488 120.672 133.12801 145.416 152.616 164.54401 176.256 194.75999 207.144 212.808 224.112 234.28799 240 247.34399 258.23999"
           y="0"
           sodipodi:role="line"
           id="tspan8154">Algorithms and Complexity</tspan>
      </text>
    </g>
    <g
       id="g8156"
       transform="matrix(1.25,0,0,-1.25,-35.375,402.01843)">
      <text
         transform="matrix(1,0,0,-1,0,-37.2)"
         id="text8158">
        <tspan
           style="font-size:24px;font-variant:normal;font-weight:normal;writing-mode:lr-tb;fill:#003399;fill-opacity:1;fill-rule:nonzero;stroke:none;font-family:Delicious;-inkscape-font-specification:Delicious-Roman"
           x="0"
           y="0"
           id="tspan8160">•</tspan>
      </text>
    </g>
    <g
       id="g8162"
       transform="matrix(1.25,0,0,-1.25,-35.375,402.01843)">
      <text
         transform="matrix(1,0,0,-1,10.17599,-37.2)"
         id="text8164">
        <tspan
           style="font-size:24px;font-variant:normal;font-weight:normal;writing-mode:lr-tb;fill:#0048aa;fill-opacity:1;fill-rule:nonzero;stroke:none;font-family:Helvetica;-inkscape-font-specification:Helvetica"
           x="0"
           y="0"
           id="tspan8166"> </tspan>
      </text>
    </g>
    <g
       id="g8168"
       transform="matrix(1.25,0,0,-1.25,-35.375,402.01843)">
      <text
         transform="matrix(1,0,0,-1,27.00002,-37.2)"
         id="text8170">
        <tspan
           style="font-size:24px;font-variant:normal;font-weight:normal;writing-mode:lr-tb;fill:#003399;fill-opacity:1;fill-rule:nonzero;stroke:none;font-family:Delicious;-inkscape-font-specification:Delicious-Roman"
           x="0 13.128 24.312 31.656 42.84 54.911999 66.096001 76.176003 87.480003 97.559998"
           y="0"
           sodipodi:role="line"
           id="tspan8172">Databases</tspan>
      </text>
    </g>
    <g
       id="g9200"
       transform="matrix(1.25,0,0,-1.25,-44.375,804.86218)"
       class="substep">
      <g
         id="g8216"
         transform="matrix(7.874016e-5,0,0,-7.874016e-5,324,421)">
        <path
           inkscape:connector-curvature="0"
           d="m 0,0 c 99511.76,0 180182,64500.71 180182,144066 l 0,576262.1 c 0,79565.3 80670.3,144066 180182.1,144066 -99511.8,0 -180182.1,64500.3 -180182.1,144065.9 l 0,576262 c 0,79566 -80670.24,144066 -180182,144066"
           style="fill:none;stroke:#000000;stroke-width:12700;stroke-linecap:butt;stroke-linejoin:round;stroke-miterlimit:10;stroke-opacity:1;stroke-dasharray:none"
           id="path8218" />
      </g>
      <g
         id="g8220"
         transform="translate(367.2,394.275)">
        <text
           transform="matrix(1,0,0,-1,0,-24)"
           id="text8222">
          <tspan
             style="font-size:24px;font-variant:normal;font-weight:bold;writing-mode:lr-tb;fill:#000000;fill-opacity:1;fill-rule:nonzero;stroke:none;font-family:Delicious;-inkscape-font-specification:Delicious-Bold"
             x="0 13.152 24.864 40.944 48.144001 55.487999 67.199997 74.400002 86.472 98.928001 104.64 110.304 122.592"
             y="0"
             sodipodi:role="line"
             id="tspan8224">How to build</tspan>
        </text>
      </g>
      <g
         id="g8226"
         transform="translate(367.2,366.275)">
        <text
           transform="matrix(1,0,0,-1,0,-24)"
           id="text8228">
          <tspan
             style="font-size:24px;font-variant:normal;font-weight:bold;writing-mode:lr-tb;fill:#000000;fill-opacity:1;fill-rule:nonzero;stroke:none;font-family:Delicious;-inkscape-font-specification:Delicious-Bold"
             x="0 9.8879995 21.6 40.104 52.487999 64.199997 76.655998 87.959999 100.416 107.76 117.816"
             y="0"
             sodipodi:role="line"
             id="tspan8230">components</tspan>
        </text>
      </g>
      <g
         id="g8232"
         transform="translate(367.2,337.275)">
        <text
           transform="matrix(1,0,0,-1,0,-24)"
           id="text8234">
          <tspan
             style="font-size:24px;font-variant:normal;font-weight:bold;writing-mode:lr-tb;fill:#000000;fill-opacity:1;fill-rule:nonzero;stroke:none;font-family:Delicious;-inkscape-font-specification:Delicious-Bold"
             x="0 6.8639998 14.52 26.232 44.736 51.936001 61.992001 71.879997 79.536003 90.720001 98.064003 107.952 120.408"
             y="0"
             sodipodi:role="line"
             id="tspan8236">from scratch</tspan>
        </text>
      </g>
      <path
         id="path8290"
         style="fill:#fffda9;fill-opacity:1;fill-rule:evenodd;stroke:none"
         d="m 528,295.25 141.75,0 0,119 -141.75,0 0,-119 z"
         inkscape:connector-curvature="0" />
      <g
         transform="matrix(7.874016e-5,0,0,-7.874016e-5,528,414.25)"
         id="g8292">
        <path
           id="path8294"
           style="fill:none;stroke:#000000;stroke-width:12700;stroke-linecap:butt;stroke-linejoin:miter;stroke-miterlimit:8;stroke-opacity:1;stroke-dasharray:none"
           d="m 0,0 1800225,0 0,1511300 L 0,1511300 0,0 z"
           inkscape:connector-curvature="0" />
      </g>
      <path
         id="path8296"
         style="fill:#00d5ff;fill-opacity:1;fill-rule:evenodd;stroke:none"
         d="m 545,346.2188 c 0,-3.1239 10.1576,-5.6563 22.6876,-5.6563 12.5299,0 22.6875,2.5324 22.6875,5.6563 l 0,-33.9376 c 0,-3.1239 -10.1576,-5.6562 -22.6876,-5.6562 -12.53,0 -22.6876,2.5323 -22.6876,5.6562 L 545,346.2188 z"
         inkscape:connector-curvature="0" />
      <path
         id="path8298"
         style="fill:#75e5ff;fill-opacity:1;fill-rule:evenodd;stroke:none"
         d="m 545,346.2188 c 0,3.1238 10.1576,5.6562 22.6876,5.6562 12.5299,0 22.6875,-2.5324 22.6875,-5.6562 0,-3.1239 -10.1576,-5.6563 -22.6875,-5.6563 -12.53,0 -22.6876,2.5324 -22.6876,5.6563 z"
         inkscape:connector-curvature="0" />
      <g
         transform="matrix(7.874016e-5,0,0,-7.874016e-5,545,351.875)"
         id="g8300">
        <path
           id="path8302"
           style="fill:none;stroke:#000000;stroke-width:12700;stroke-linecap:butt;stroke-linejoin:round;stroke-miterlimit:10;stroke-opacity:1;stroke-dasharray:none"
           d="m 576263.2,71833.88 c 0,39672.72 -129001.4,71834.02 -288132,71834.02 C 128999.9,143667.9 -0.7751465,111506.6 -0.7751465,71833.88 -0.7751465,32161.1 128999.9,-0.1124268 288131.2,-0.1124268 c 159130.6,0 288132,32161.2124268 288132,71833.9924268 l 0,431007.02 c 0,39672.8 -129001.4,71834 -288132,71834 C 128999.9,574674.9 69.920364,542513.64 -0.7751465,502840.9 L -768.81546,71833.88"
           inkscape:connector-curvature="0"
           sodipodi:nodetypes="csssssssc" />
      </g>
      <path
         id="path8304"
         style="fill:#ffa900;fill-opacity:1;fill-rule:evenodd;stroke:none"
         d="m 613,346.25 39.75,0 0,-30.105 -9.645,-9.645 -30.105,0 0,39.75 z"
         inkscape:connector-curvature="0" />
      <path
         id="path8306"
         style="fill:#d88d00;fill-opacity:1;fill-rule:evenodd;stroke:none"
         d="m 643.105,306.5 1.929,7.716 7.716,1.929 -9.645,-9.645 z"
         inkscape:connector-curvature="0" />
      <g
         transform="matrix(7.874016e-5,0,0,-7.874016e-5,613,346.25)"
         id="g8308">
        <path
           id="path8310"
           style="fill:none;stroke:#000000;stroke-width:12700;stroke-linecap:butt;stroke-linejoin:round;stroke-miterlimit:10;stroke-opacity:1;stroke-dasharray:none"
           d="M 382334,504825 406831.8,406832.2 504825,382334 382334,504825 0,504825 0,0 l 504825,0 0,382334"
           inkscape:connector-curvature="0" />
      </g>
      <path
         id="path8312"
         style="fill:#00f900;fill-opacity:1;fill-rule:evenodd;stroke:none"
         d="m 607.3751,368.9999 35.46881,0 0,29.71872 -35.46881,0 0,-29.71872 z"
         inkscape:connector-curvature="0" />
      <path
         id="path8314"
         style="fill:#00d100;fill-opacity:1;fill-rule:evenodd;stroke:none"
         d="m 642.8439,398.7187 9.9062,9.9063 0,-29.7188 -9.9062,-9.9063 0,29.7188 z"
         inkscape:connector-curvature="0" />
      <path
         id="path8316"
         style="fill:#2ef940;fill-opacity:1;fill-rule:evenodd;stroke:none"
         d="m 607.3751,398.7187 9.9063,9.9063 35.4687,0 -9.9062,-9.9063 -35.4688,0 z"
         inkscape:connector-curvature="0" />
      <g
         transform="matrix(7.874016e-5,0,0,-7.874016e-5,607.3751,408.625)"
         id="g8318">
        <path
           id="path8320"
           style="fill:none;stroke:#000000;stroke-width:12700;stroke-linecap:butt;stroke-linejoin:miter;stroke-miterlimit:8;stroke-opacity:1;stroke-dasharray:none"
           d="M 0.2751465,125810 125810.4,-0.1124268 l 450453.2,0 0,377428.9124268 -125809.4,125809 -450453.9248535,0 0,-377427.8 z m 0,0 L 450454.2,125810 576263.6,-0.1124268 M 450454.2,125810 l 0,377427.8"
           inkscape:connector-curvature="0" />
      </g>
      <path
         id="path8322"
         style="fill:#ff2600;fill-opacity:1;fill-rule:evenodd;stroke:none"
         d="m 542.6241,367.8753 7.8541,12.6719 c -8.1649,7.1218 -7.079,17.8548 2.4255,23.9729 9.5044,6.1181 23.8283,5.3044 31.9932,-1.8174 8.1649,-7.1218 7.079,-17.8548 -2.4255,-23.9729 -7.0152,-4.5157 -16.9863,-5.3887 -25.2019,-2.2065 l -14.6454,-8.648 z"
         inkscape:connector-curvature="0" />
      <g
         transform="matrix(7.874016e-5,0,0,-7.874016e-5,545,408.625)"
         id="g8324">
        <path
           id="path8326"
           style="fill:none;stroke:#000000;stroke-width:12700;stroke-linecap:butt;stroke-linejoin:miter;stroke-miterlimit:8;stroke-opacity:1;stroke-dasharray:none"
           d="M -30173.35,517521 69573.27,356587 C -34121.17,266140.2 -20330.54,129831.1 100376.8,52131.98 c 120706.6,-77699.52 302619.5,-67365.66 406314,23081.14 103694.4,90446.78 89903,226755.98 -30803.6,304455.08 -89093.8,57349.6 -215726.3,68436.9 -320064.9,28023.1 L -30173.35,517521 z"
           inkscape:connector-curvature="0" />
      </g>
    </g>
    <g
       id="g9370"
       class="substep">
      <g
         transform="matrix(1.25,0,0,-1.25,257.125,740.61219)"
         id="g8068">
        <text
           id="text8070"
           transform="matrix(1,0,0,-1,86.12604,-14)">
          <tspan
             id="tspan8072"
             sodipodi:role="line"
             y="0"
             x="0 6.0760002 12.67 23.464001 30.058001 35.938 40.222 46.816002 51.282001 55.481998 61.782001 68.082001 74.382004 76.482002"
             style="font-size:14px;font-variant:normal;font-weight:normal;writing-mode:lr-tb;fill:#000000;fill-opacity:1;fill-rule:nonzero;stroke:none;font-family:Delicious;-inkscape-font-specification:Delicious-Roman">Semester 2011</tspan>
        </text>
      </g>
      <g
         id="g9232">
        <g
           id="g8174"
           transform="matrix(1.25,0,0,-1.25,-35.375,484.51843)">
          <text
             transform="matrix(1,0,0,-1,0,-37.2)"
             id="text8176">
            <tspan
               style="font-size:24px;font-variant:normal;font-weight:normal;writing-mode:lr-tb;fill:#003399;fill-opacity:1;fill-rule:nonzero;stroke:none;font-family:Delicious;-inkscape-font-specification:Delicious-Roman"
               x="0"
               y="0"
               id="tspan8178">•</tspan>
          </text>
        </g>
        <g
           id="g8180"
           transform="matrix(1.25,0,0,-1.25,-35.375,484.51843)">
          <text
             transform="matrix(1,0,0,-1,10.17599,-37.2)"
             id="text8182">
            <tspan
               style="font-size:24px;font-variant:normal;font-weight:normal;writing-mode:lr-tb;fill:#0048aa;fill-opacity:1;fill-rule:nonzero;stroke:none;font-family:Helvetica;-inkscape-font-specification:Helvetica"
               x="0"
               y="0"
               id="tspan8184"> </tspan>
          </text>
        </g>
        <g
           id="g8186"
           transform="matrix(1.25,0,0,-1.25,-35.375,484.51843)">
          <text
             transform="matrix(1,0,0,-1,27.00002,-37.2)"
             id="text8188">
            <tspan
               style="font-size:24px;font-variant:normal;font-weight:normal;writing-mode:lr-tb;fill:#003399;fill-opacity:1;fill-rule:nonzero;stroke:none;font-family:Delicious;-inkscape-font-specification:Delicious-Roman"
               x="0 10.416 22.128 28.992001 36.335999 52.416 63.599998 71.255997 82.559998 89.760002 102 109.656 119.544 132 137.71201 145.056 156.36 166.248 173.592 186.048 193.70399 205.008"
               y="0"
               sodipodi:role="line"
               id="tspan8190">Software Architecture</tspan>
          </text>
        </g>
        <g
           id="g8192"
           transform="matrix(1.25,0,0,-1.25,-35.375,537.01855)">
          <text
             transform="matrix(1,0,0,-1,0,-37.2)"
             id="text8194">
            <tspan
               style="font-size:24px;font-variant:normal;font-weight:normal;writing-mode:lr-tb;fill:#003399;fill-opacity:1;fill-rule:nonzero;stroke:none;font-family:Delicious;-inkscape-font-specification:Delicious-Roman"
               x="0"
               y="0"
               id="tspan8196">•</tspan>
          </text>
        </g>
        <g
           id="g8198"
           transform="matrix(1.25,0,0,-1.25,-35.375,537.01855)">
          <text
             transform="matrix(1,0,0,-1,10.17599,-37.2)"
             id="text8200">
            <tspan
               style="font-size:24px;font-variant:normal;font-weight:normal;writing-mode:lr-tb;fill:#0048aa;fill-opacity:1;fill-rule:nonzero;stroke:none;font-family:Helvetica;-inkscape-font-specification:Helvetica"
               x="0"
               y="0"
               id="tspan8202"> </tspan>
          </text>
        </g>
        <g
           id="g8204"
           transform="matrix(1.25,0,0,-1.25,-35.375,537.01855)">
          <text
             transform="matrix(1,0,0,-1,27.00002,-37.2)"
             id="text8206">
            <tspan
               style="font-size:24px;font-variant:normal;font-weight:normal;writing-mode:lr-tb;fill:#003399;fill-opacity:1;fill-rule:nonzero;stroke:none;font-family:Delicious;-inkscape-font-specification:Delicious-Roman"
               x="0 11.928 23.639999 42.144001 54.528 66.239998 78.695999 90 102.456 109.8 117.048 129.12 140.304 150.384 161.688 173.976"
               y="0"
               sodipodi:role="line"
               id="tspan8208">Component-based</tspan>
          </text>
        </g>
        <g
           id="g8210"
           transform="matrix(1.25,0,0,-1.25,-1.625,589.51855)">
          <text
             transform="matrix(1,0,0,-1,0,-22.79999)"
             id="text8212">
            <tspan
               style="font-size:24px;font-variant:normal;font-weight:normal;writing-mode:lr-tb;fill:#003399;fill-opacity:1;fill-rule:nonzero;stroke:none;font-family:Delicious;-inkscape-font-specification:Delicious-Roman"
               x="0 10.416 22.128 28.992001 36.335999 52.416 63.599998 71.255997 82.559998 89.760002 100.656 113.112 124.032 129.744 142.2 153.504 164.808 172.464 178.17599 190.632 201.552"
               y="0"
               sodipodi:role="line"
               id="tspan8214">Software Engineering</tspan>
          </text>
        </g>
        <g
           id="g8238"
           transform="matrix(9.84252e-5,0,0,9.84252e-5,360.625,507.04968)">
          <path
             inkscape:connector-curvature="0"
             d="m 0,0 c 99511.76,0 180182,77756.11 180182,173672.9 l 0,193198.1 c 0,95917 80670.3,173672.9 180182.1,173672.9 -99511.8,0 -180182.1,77756.2 -180182.1,173673.2 l 0,193197.8 C 180182,1003332 99511.76,1081088 0,1081088"
             style="fill:none;stroke:#000000;stroke-width:12700;stroke-linecap:butt;stroke-linejoin:round;stroke-miterlimit:10;stroke-opacity:1;stroke-dasharray:none"
             id="path8240" />
        </g>
        <g
           id="g8242"
           transform="matrix(1.25,0,0,-1.25,412.28125,524.67468)">
          <text
             transform="matrix(1,0,0,-1,0,-24)"
             id="text8244">
            <tspan
               style="font-size:24px;font-variant:normal;font-weight:bold;writing-mode:lr-tb;fill:#000000;fill-opacity:1;fill-rule:nonzero;stroke:none;font-family:Delicious;-inkscape-font-specification:Delicious-Bold"
               x="0 13.152 24.864 40.944 48.144001 55.487999 67.199997 74.400002 86.688004 97.991997 108.048 113.76 124.68 137.136 144.336 150 161.18401 168.84 179.75999 191.064 198.26401 208.32001 219.216 229.272 236.616 247.92 266.42401 276.48001"
               y="0"
               sodipodi:role="line"
               id="tspan8246">How to design large systems</tspan>
          </text>
        </g>
        <g
           id="g8248"
           transform="matrix(1.25,0,0,-1.25,412.28125,559.67468)">
          <text
             transform="matrix(1,0,0,-1,0,-24)"
             id="text8250">
            <tspan
               style="font-size:24px;font-variant:normal;font-weight:bold;writing-mode:lr-tb;fill:#000000;fill-opacity:1;fill-rule:nonzero;stroke:none;font-family:Delicious;-inkscape-font-specification:Delicious-Bold"
               x="0 11.712 24.167999 31.511999 38.712002 50.424 57.287998 64.487999 72.143997 83.447998 95.903999 105.96 117.144 129.216 134.88 146.18401 153.384 163.272 174.98399 193.48801 205.87199 217.584 230.03999 241.34399 253.8 261.14401 271.20001"
               y="0"
               sodipodi:role="line"
               id="tspan8252">out of reusable components</tspan>
          </text>
        </g>
      </g>
      <g
         id="g9361">
        <g
           id="g8254"
           transform="matrix(1.25,0,0,-1.25,-44.375,804.86218)">
          <g
             id="g8256"
             clip-path="url(#clipPath8258)">
            <g
               id="g8262">
              <g
                 id="g8268">
                <path
                   inkscape:connector-curvature="0"
                   d="M 0,0 671,0 671,436 0,436 0,0 z"
                   style="fill:url(#linearGradient8270);stroke:none"
                   id="path8276" />
              </g>
            </g>
          </g>
        </g>
        <g
           id="g8286"
           transform="matrix(9.84252e-5,0,0,9.84252e-5,237.8125,681.42468)">
          <path
             inkscape:connector-curvature="0"
             d="M 0,360363 261688.1,0 l 0,163197 413249,0 0,-163197 261687.9,360363 -261687.9,360362 0,-163197 -413249,0 0,163197 L 0,360363 z"
             style="fill:none;stroke:#000000;stroke-width:12700;stroke-linecap:butt;stroke-linejoin:miter;stroke-miterlimit:8;stroke-opacity:1;stroke-dasharray:none"
             id="path8288" />
        </g>
      </g>
      <path
         id="path8328"
         style="fill:#ff2600;fill-opacity:1;fill-rule:evenodd;stroke:none"
         d="m 599.21888,794.86218 177.1875,0 0,-148.75 -177.1875,0 0,148.75 z"
         inkscape:connector-curvature="0" />
      <g
         transform="matrix(9.84252e-5,0,0,9.84252e-5,599.21888,646.11218)"
         id="g8330">
        <path
           id="path8332"
           style="fill:none;stroke:#000000;stroke-width:12700;stroke-linecap:butt;stroke-linejoin:miter;stroke-miterlimit:8;stroke-opacity:1;stroke-dasharray:none"
           d="M 0.2751465,0 1800225.3,0 l 0,1511300 -1800225.0248535,0 0,-1511300 z"
           inkscape:connector-curvature="0" />
      </g>
      <path
         id="path8334"
         style="fill:#ff2600;fill-opacity:1;fill-rule:evenodd;stroke:none"
         d="m 620.46888,731.15124 c 0,3.9048 12.69699,7.07028 28.35937,7.07028 15.6625,0 28.3595,-3.16548 28.3595,-7.07028 l -1.2e-4,42.42195 c 0,3.9048 -12.69701,7.07028 -28.35938,7.07028 -15.66262,0 -28.3595,-3.16548 -28.3595,-7.07028 l 1.3e-4,-42.42195 z"
         inkscape:connector-curvature="0" />
      <path
         id="path8336"
         style="fill:#ff7e79;fill-opacity:1;fill-rule:evenodd;stroke:none"
         d="m 620.46888,731.15124 c 0,-3.9048 12.69699,-7.07027 28.35937,-7.07027 15.6625,0 28.3595,3.16547 28.3595,7.07027 0,3.9048 -12.697,7.07028 -28.3595,7.07028 -15.66238,0 -28.35937,-3.16548 -28.35937,-7.07028 z"
         inkscape:connector-curvature="0" />
      <path
         id="path8342"
         style="fill:#ff2600;fill-opacity:1;fill-rule:evenodd;stroke:none"
         d="m 705.46888,731.11218 49.6875,0 0,37.6313 -12.05626,12.0562 -37.63124,0 0,-49.6875 z"
         inkscape:connector-curvature="0" />
      <path
         id="path8344"
         style="fill:#d91e00;fill-opacity:1;fill-rule:evenodd;stroke:none"
         d="m 743.10012,780.79968 2.41125,-9.64498 9.64501,-2.41122 -12.05626,12.0562 z"
         inkscape:connector-curvature="0" />
      <g
         transform="matrix(9.84252e-5,0,0,9.84252e-5,705.46888,731.11218)"
         id="g8346">
        <path
           id="path8348"
           style="fill:none;stroke:#000000;stroke-width:12700;stroke-linecap:butt;stroke-linejoin:round;stroke-miterlimit:10;stroke-opacity:1;stroke-dasharray:none"
           d="M 382334.3,504825 406832,406832 504825.3,382334 382334.3,504825 0.2751465,504825 0.2751465,0 504825.3,0 l 0,382334"
           inkscape:connector-curvature="0" />
      </g>
      <path
         id="path8350"
         style="fill:#ff2600;fill-opacity:1;fill-rule:evenodd;stroke:none"
         d="m 698.43763,702.67477 44.33601,0 0,-37.14843 -44.33601,0 0,37.14843 z"
         inkscape:connector-curvature="0" />
      <path
         id="path8352"
         style="fill:#d91e00;fill-opacity:1;fill-rule:evenodd;stroke:none"
         d="m 742.77362,665.5263 12.38276,-12.38287 0,37.14856 -12.38276,12.38278 0,-37.14847 z"
         inkscape:connector-curvature="0" />
      <path
         id="path8354"
         style="fill:#ff4c40;fill-opacity:1;fill-rule:evenodd;stroke:none"
         d="m 698.43763,665.5263 12.38287,-12.38287 44.33588,0 -12.38276,12.38287 -44.33599,0 z"
         inkscape:connector-curvature="0" />
      <g
         transform="matrix(9.84252e-5,0,0,9.84252e-5,698.43763,653.14343)"
         id="g8356">
        <path
           id="path8358"
           style="fill:none;stroke:#000000;stroke-width:12700;stroke-linecap:butt;stroke-linejoin:miter;stroke-miterlimit:8;stroke-opacity:1;stroke-dasharray:none"
           d="M 0.2751465,125810 125810.4,0.01257324 l 450453.2,0 0,377428.98742676 -125809.4,125809 -450453.9248535,0 0,-377428 z m 0,0 L 450454.2,125810 576263.6,0.01257324 M 450454.2,125810 l 0,377428"
           inkscape:connector-curvature="0" />
      </g>
      <path
         id="path8360"
         style="fill:#ff2600;fill-opacity:1;fill-rule:evenodd;stroke:none"
         d="m 617.499,704.08058 9.81762,-15.83996 c -10.20612,-8.90219 -8.84887,-22.31844 3.03175,-29.96607 11.88063,-7.6475 29.7855,-6.63037 39.99163,2.27175 10.20612,8.90225 8.84875,22.31853 -3.03188,29.96609 -8.76912,5.64466 -21.23287,6.73593 -31.5025,2.75819 l -18.30662,10.81 z"
         inkscape:connector-curvature="0" />
      <g
         transform="matrix(9.84252e-5,0,0,9.84252e-5,620.46888,653.14343)"
         id="g8362">
        <path
           id="path8364"
           style="fill:none;stroke:#000000;stroke-width:12700;stroke-linecap:butt;stroke-linejoin:miter;stroke-miterlimit:8;stroke-opacity:1;stroke-dasharray:none"
           d="M -30173.08,517521 69573.55,356587.1 C -34120.9,266140.3 -20330.27,129831.1 100377.1,52132 c 120706.6,-77699.22 302619.5,-67365.36 406314,23081.25 103694.4,90446.75 89903,226755.85 -30803.6,304455.05 -89093.8,57349.7 -215726.4,68437 -320065,28023.1 L -30173.08,517521 z"
           inkscape:connector-curvature="0" />
      </g>
      <path
         id="path8366"
         style="fill:#00fdff;fill-opacity:1;fill-rule:evenodd;stroke:none"
         d="m 330,794.86218 177.1875,0 0,-148.75 -177.1875,0 0,148.75 z"
         inkscape:connector-curvature="0" />
      <g
         transform="matrix(9.84252e-5,0,0,9.84252e-5,330,646.11218)"
         id="g8368">
        <path
           id="path8370"
           style="fill:none;stroke:#000000;stroke-width:12700;stroke-linecap:butt;stroke-linejoin:miter;stroke-miterlimit:8;stroke-opacity:1;stroke-dasharray:none"
           d="m 0,0 1800225,0 0,1511300 L 0,1511300 0,0 z"
           inkscape:connector-curvature="0" />
      </g>
      <path
         id="path8372"
         style="fill:#00fdff;fill-opacity:1;fill-rule:evenodd;stroke:none"
         d="m 351.25,731.15124 c 0,3.9048 12.697,7.07028 28.3595,7.07028 15.6625,0 28.35937,-3.16548 28.35937,-7.07028 l -1.2e-4,42.42195 c 0,3.9048 -12.69688,7.07028 -28.35938,7.07028 -15.66249,0 -28.35949,-3.16548 -28.35949,-7.07028 l 1.2e-4,-42.42195 z"
         inkscape:connector-curvature="0" />
      <path
         id="path8374"
         style="fill:#73fdff;fill-opacity:1;fill-rule:evenodd;stroke:none"
         d="m 351.25,731.15124 c 0,-3.9048 12.697,-7.07027 28.3595,-7.07027 15.6625,0 28.35937,3.16547 28.35937,7.07027 0,3.9048 -12.69687,7.07028 -28.35937,7.07028 -15.6625,0 -28.3595,-3.16548 -28.3595,-7.07028 z"
         inkscape:connector-curvature="0" />
      <path
         id="path8380"
         style="fill:#00fdff;fill-opacity:1;fill-rule:evenodd;stroke:none"
         d="m 436.25,731.11218 49.6875,0 0,37.6313 -12.05625,12.0562 -37.63125,0 0,-49.6875 z"
         inkscape:connector-curvature="0" />
      <path
         id="path8382"
         style="fill:#00d4d7;fill-opacity:1;fill-rule:evenodd;stroke:none"
         d="m 473.88125,780.79968 2.41125,-9.64498 9.645,-2.41122 -12.05625,12.0562 z"
         inkscape:connector-curvature="0" />
      <g
         transform="matrix(9.84252e-5,0,0,9.84252e-5,436.25,731.11218)"
         id="g8384">
        <path
           id="path8386"
           style="fill:none;stroke:#000000;stroke-width:12700;stroke-linecap:butt;stroke-linejoin:round;stroke-miterlimit:10;stroke-opacity:1;stroke-dasharray:none"
           d="M 382334,504825 406832.2,406832 504825,382334 382334,504825 0,504825 0,0 l 504825,0 0,382334"
           inkscape:connector-curvature="0" />
      </g>
      <path
         id="path8388"
         style="fill:#00fdff;fill-opacity:1;fill-rule:evenodd;stroke:none"
         d="m 429.21875,702.67477 44.33601,0 0,-37.14843 -44.33601,0 0,37.14843 z"
         inkscape:connector-curvature="0" />
      <path
         id="path8390"
         style="fill:#00d4d7;fill-opacity:1;fill-rule:evenodd;stroke:none"
         d="m 473.55475,665.5263 12.38288,-12.38287 0,37.14856 -12.38288,12.38278 0,-37.14847 z"
         inkscape:connector-curvature="0" />
      <path
         id="path8392"
         style="fill:#30fdff;fill-opacity:1;fill-rule:evenodd;stroke:none"
         d="m 429.21875,665.5263 12.38288,-12.38287 44.336,0 -12.38288,12.38287 -44.336,0 z"
         inkscape:connector-curvature="0" />
      <g
         transform="matrix(9.84252e-5,0,0,9.84252e-5,429.21875,653.14343)"
         id="g8394">
        <path
           id="path8396"
           style="fill:none;stroke:#000000;stroke-width:12700;stroke-linecap:butt;stroke-linejoin:miter;stroke-miterlimit:8;stroke-opacity:1;stroke-dasharray:none"
           d="M -0.1124268,125810 125810,0.01257324 l 450452.8,0 0,377428.98742676 -125809,125809 -450453.9124268,0 0,-377428 z m 0,0 L 450453.8,125810 576262.8,0.01257324 M 450453.8,125810 l 0,377428"
           inkscape:connector-curvature="0" />
      </g>
      <path
         id="path8398"
         style="fill:#00fdff;fill-opacity:1;fill-rule:evenodd;stroke:none"
         d="m 348.28025,704.08058 9.8175,-15.83996 c -10.20613,-8.90219 -8.84875,-22.31844 3.03187,-29.96607 11.8805,-7.6475 29.78538,-6.63037 39.9915,2.27175 10.20613,8.90225 8.84875,22.31853 -3.03187,29.96609 -8.769,5.64466 -21.23288,6.73593 -31.5025,2.75819 l -18.3065,10.81 z"
         inkscape:connector-curvature="0" />
      <g
         transform="matrix(9.84252e-5,0,0,9.84252e-5,351.25,653.14343)"
         id="g8400">
        <path
           id="path8402"
           style="fill:none;stroke:#000000;stroke-width:12700;stroke-linecap:butt;stroke-linejoin:miter;stroke-miterlimit:8;stroke-opacity:1;stroke-dasharray:none"
           d="M -30172.96,517521 69572.88,356587.1 C -34121.56,266140.3 -20330.15,129831.1 100376.4,52132 221083,-25567.22 402996.3,-15233.36 506690.8,75213.25 610385.2,165660 596593.8,301969.1 475887.2,379668.3 386793.8,437018 260160.5,448105.3 155821.9,407691.4 L -30172.96,517521 z"
           inkscape:connector-curvature="0" />
      </g>
      <path
         id="path8404"
         style="fill:#00f900;fill-opacity:1;fill-rule:evenodd;stroke:none"
         d="m 60.625,794.86218 177.1875,0 0,-148.75 -177.1875,0 0,148.75 z"
         inkscape:connector-curvature="0" />
      <g
         transform="matrix(9.84252e-5,0,0,9.84252e-5,60.625,646.11218)"
         id="g8406">
        <path
           id="path8408"
           style="fill:none;stroke:#000000;stroke-width:12700;stroke-linecap:butt;stroke-linejoin:miter;stroke-miterlimit:8;stroke-opacity:1;stroke-dasharray:none"
           d="m 0,0 1800225,0 0,1511300 L 0,1511300 0,0 z"
           inkscape:connector-curvature="0" />
      </g>
      <path
         id="path8410"
         style="fill:#00f900;fill-opacity:1;fill-rule:evenodd;stroke:none"
         d="m 81.875,731.15124 c 0,3.9048 12.697,7.07028 28.3595,7.07028 15.6625,0 28.35937,-3.16548 28.35937,-7.07028 l -1.2e-4,42.42195 c 0,3.9048 -12.69688,7.07028 -28.35937,7.07028 -15.662505,0 -28.359505,-3.16548 -28.359505,-7.07028 L 81.875,731.15124 z"
         inkscape:connector-curvature="0" />
      <path
         id="path8412"
         style="fill:#73fa79;fill-opacity:1;fill-rule:evenodd;stroke:none"
         d="m 81.875,731.15124 c 0,-3.9048 12.697,-7.07027 28.3595,-7.07027 15.6625,0 28.35937,3.16547 28.35937,7.07027 0,3.9048 -12.69687,7.07028 -28.35937,7.07028 -15.6625,0 -28.3595,-3.16548 -28.3595,-7.07028 z"
         inkscape:connector-curvature="0" />
      <path
         id="path8418"
         style="fill:#00f900;fill-opacity:1;fill-rule:evenodd;stroke:none"
         d="m 166.875,731.11218 49.6875,0 0,37.6313 -12.05625,12.0562 -37.63125,0 0,-49.6875 z"
         inkscape:connector-curvature="0" />
      <path
         id="path8420"
         style="fill:#00d100;fill-opacity:1;fill-rule:evenodd;stroke:none"
         d="m 204.50625,780.79968 2.41125,-9.64498 9.645,-2.41122 -12.05625,12.0562 z"
         inkscape:connector-curvature="0" />
      <g
         transform="matrix(9.84252e-5,0,0,9.84252e-5,166.875,731.11218)"
         id="g8422">
        <path
           id="path8424"
           style="fill:none;stroke:#000000;stroke-width:12700;stroke-linecap:butt;stroke-linejoin:round;stroke-miterlimit:10;stroke-opacity:1;stroke-dasharray:none"
           d="M 382334,504825 406831.9,406832 504825,382334 382334,504825 0,504825 0,0 l 504825,0 0,382334"
           inkscape:connector-curvature="0" />
      </g>
      <path
         id="path8426"
         style="fill:#00f900;fill-opacity:1;fill-rule:evenodd;stroke:none"
         d="m 159.84375,702.67477 44.33604,0 0,-37.14843 -44.33604,0 0,37.14843 z"
         inkscape:connector-curvature="0" />
      <path
         id="path8428"
         style="fill:#00d100;fill-opacity:1;fill-rule:evenodd;stroke:none"
         d="m 204.17987,665.5263 12.38276,-12.38287 0,37.14856 -12.38276,12.38278 0,-37.14847 z"
         inkscape:connector-curvature="0" />
      <path
         id="path8430"
         style="fill:#2ef940;fill-opacity:1;fill-rule:evenodd;stroke:none"
         d="m 159.84375,665.5263 12.38287,-12.38287 44.336,0 -12.38275,12.38287 -44.33612,0 z"
         inkscape:connector-curvature="0" />
      <g
         transform="matrix(9.84252e-5,0,0,9.84252e-5,159.84375,653.14343)"
         id="g8432">
        <path
           id="path8434"
           style="fill:none;stroke:#000000;stroke-width:12700;stroke-linecap:butt;stroke-linejoin:miter;stroke-miterlimit:8;stroke-opacity:1;stroke-dasharray:none"
           d="M 0.08135986,125810 125810,0.01257324 l 450453.2,0 0,377428.98742676 -125809,125809 -450454.11864014,0 0,-377428 z m 0,0 L 450454.2,125810 576263.2,0.01257324 M 450454.2,125810 l 0,377428"
           inkscape:connector-curvature="0" />
      </g>
      <path
         id="path8436"
         style="fill:#00f900;fill-opacity:1;fill-rule:evenodd;stroke:none"
         d="m 78.905225,704.08058 9.817525,-15.83996 c -10.206163,-8.90219 -8.848763,-22.31844 3.031875,-29.96607 11.880505,-7.6475 29.785375,-6.63037 39.991495,2.27175 10.20613,8.90225 8.84876,22.31853 -3.03187,29.96609 -8.769,5.64466 -21.23287,6.73593 -31.5025,2.75819 l -18.306525,10.81 z"
         inkscape:connector-curvature="0" />
      <g
         transform="matrix(9.84252e-5,0,0,9.84252e-5,81.875,653.14343)"
         id="g8438">
        <path
           id="path8440"
           style="fill:none;stroke:#000000;stroke-width:12700;stroke-linecap:butt;stroke-linejoin:miter;stroke-miterlimit:8;stroke-opacity:1;stroke-dasharray:none"
           d="M -30172.96,517521 69572.98,356587.1 C -34121.46,266140.3 -20330.25,129831.1 100376.4,52132 221083.2,-25567.22 402996.3,-15233.36 506690.8,75213.25 610385.2,165660 596594,301969.1 475887.2,379668.3 386793.6,437018 260160.7,448105.3 155822,407691.4 L -30172.96,517521 z"
           inkscape:connector-curvature="0" />
      </g>
      <path
         id="path8302-0"
         style="fill:none;stroke:#000000;stroke-width:1.25;stroke-linecap:butt;stroke-linejoin:round;stroke-miterlimit:10;stroke-opacity:1;stroke-dasharray:none"
         d="m 137.56587,731.27417 c 0,3.9048 -12.697,7.07028 -28.35945,7.07028 -15.662533,0 -28.359445,-3.16548 -28.359445,-7.07028 0,-3.9048 12.696912,-7.07027 28.359445,-7.07027 15.66245,0 28.35945,3.16547 28.35945,7.07027 l 0,42.42195 c 0,3.9048 -12.697,7.07028 -28.35945,7.07028 -15.662533,0 -28.352495,-3.16548 -28.359445,-7.07028 l -0.07563,-42.42195"
         inkscape:connector-curvature="0"
         sodipodi:nodetypes="csssssssc" />
      <path
         id="path8302-9"
         style="fill:none;stroke:#000000;stroke-width:1.25;stroke-linecap:butt;stroke-linejoin:round;stroke-miterlimit:10;stroke-opacity:1;stroke-dasharray:none"
         d="m 407.34346,731.99167 c 0,3.9048 -12.69699,7.07027 -28.35945,7.07027 -15.66252,0 -28.35945,-3.16547 -28.35945,-7.07027 0,-3.9048 12.69693,-7.07028 28.35945,-7.07028 15.66246,0 28.35945,3.16548 28.35945,7.07028 l 0,42.42195 c 0,3.9048 -12.69699,7.07027 -28.35945,7.07027 -15.66252,0 -28.35249,-3.16547 -28.35945,-7.07027 l -0.0756,-42.42195"
         inkscape:connector-curvature="0"
         sodipodi:nodetypes="csssssssc" />
      <path
         id="path8302-2"
         style="fill:none;stroke:#000000;stroke-width:1.25;stroke-linecap:butt;stroke-linejoin:round;stroke-miterlimit:10;stroke-opacity:1;stroke-dasharray:none"
         d="m 676.40355,730.55668 c 0,3.9048 -12.69699,7.07027 -28.35945,7.07027 -15.66253,0 -28.35945,-3.16547 -28.35945,-7.07027 0,-3.9048 12.69693,-7.07028 28.35945,-7.07028 15.66246,0 28.35945,3.16548 28.35945,7.07028 l 0,42.42195 c 0,3.9048 -12.69699,7.07027 -28.35945,7.07027 -15.66253,0 -28.35249,-3.16547 -28.35945,-7.07027 l -0.0756,-42.42195"
         inkscape:connector-curvature="0"
         sodipodi:nodetypes="csssssssc" />
      <g
         id="g9350">
        <g
           id="g8442"
           transform="matrix(1.25,0,0,-1.25,-44.375,804.86218)">
          <g
             id="g8444"
             clip-path="url(#clipPath8446)">
            <g
               id="g8450">
              <g
                 id="g8456">
                <path
                   inkscape:connector-curvature="0"
                   d="M 0,0 671,0 671,436 0,436 0,0 z"
                   style="fill:url(#linearGradient8458);stroke:none"
                   id="path8464" />
              </g>
            </g>
          </g>
        </g>
        <g
           id="g8466"
           transform="matrix(1.25,0,0,-1.25,-44.375,804.86218)">
          <g
             id="g8468"
             clip-path="url(#clipPath8470)">
            <g
               id="g8474"
               transform="matrix(7.874016e-5,0,0,-7.874016e-5,441.25,98.75)">
              <path
                 inkscape:connector-curvature="0"
                 d="M 0,360363 261687.9,0 l 0,163197 413249.2,0 0,-163197 261687.9,360363 -261687.9,360362 0,-163197 -413249.2,0 0,163197 L 0,360363 z"
                 style="fill:none;stroke:#000000;stroke-width:12700;stroke-linecap:butt;stroke-linejoin:miter;stroke-miterlimit:8;stroke-opacity:1;stroke-dasharray:none"
                 id="path8476" />
            </g>
          </g>
        </g>
      </g>
    </g>
  </g>
</svg>
