<?xml version="1.0" encoding="utf-8"?>
<!-- Generator: Adobe Illustrator 15.1.0, SVG Export Plug-In . SVG Version: 6.00 Build 0)  -->
<!DOCTYPE svg PUBLIC "-//W3C//DTD SVG 1.1//EN" "http://www.w3.org/Graphics/SVG/1.1/DTD/svg11.dtd">
<svg version="1.1" xmlns="http://www.w3.org/2000/svg" xmlns:xlink="http://www.w3.org/1999/xlink" x="0px" y="0px"
	 width="314.64px" height="113.28px" viewBox="0 0 314.64 113.28" enable-background="new 0 0 314.64 113.28" xml:space="preserve">
<g id="Form_2_Kopie_1_" enable-background="new    ">
	<g id="Form_2_Kopie">
		<g>
			<path fill-rule="evenodd" clip-rule="evenodd" d="M107.596,6.039v94.665h94.665V6.039H107.596z M196.536,94.824h-83.194V11.919
				h83.194V94.824z"/>
		</g>
	</g>
</g>
<g id="Form_2_Kopie_2_1_" enable-background="new    ">
	<g id="Form_2_Kopie_2">
		<g>
			<path fill-rule="evenodd" clip-rule="evenodd" d="M208.141,6.039v94.665h94.665V6.039H208.141z M297.081,94.824h-83.194V11.919
				h83.194V94.824z"/>
		</g>
	</g>
</g>
<g id="Form_2_Kopie_3_1_" enable-background="new    ">
	<g id="Form_2_Kopie_3">
		<g>
			<path fill-rule="evenodd" clip-rule="evenodd" d="M7.052,6.039v94.665h94.665V6.039H7.052z M95.991,94.824H12.797V11.919h83.194
				V94.824z"/>
		</g>
	</g>
</g>
<g id="S_copy_1_" enable-background="new    ">
	<g id="S_copy">
		<g>
			<path fill-rule="evenodd" clip-rule="evenodd" d="M157.665,48.932c-8.202-3.175-11.818-5.909-11.818-11.465
				c0-4.057,3.087-8.908,11.201-8.908c5.38,0,9.349,1.764,11.289,2.822l2.117-6.262c-2.646-1.499-7.056-2.91-13.141-2.91
				c-11.553,0-19.226,6.879-19.226,16.139c0,8.378,5.997,13.405,15.698,16.845c8.025,3.087,11.2,6.262,11.2,11.818
				c0,5.997-4.586,10.143-12.435,10.143c-5.292,0-10.319-1.765-13.758-3.881l-1.94,6.438c3.175,2.116,9.437,3.792,15.169,3.792
				c14.022,0,20.813-7.938,20.813-17.109C172.833,57.663,167.718,52.812,157.665,48.932z"/>
		</g>
	</g>
</g>
<g id="Q_copy_1_" enable-background="new    ">
	<g id="Q_copy">
		<g>
			<path fill-rule="evenodd" clip-rule="evenodd" d="M264.852,81.122v-0.353c9.878-3.439,16.934-13.229,16.934-28.486
				c0-17.55-10.495-30.074-26.635-30.074c-16.051,0-27.692,12.259-27.692,31.309c0,19.138,12.082,29.544,26.193,30.074
				c1.146,0,2.381,0.441,3.616,0.882c6.879,2.382,14.729,4.763,22.754,6.879l2.205-6.438
				C277.2,84.033,270.761,82.622,264.852,81.122z M254.534,77.33c-11.994,0-18.962-11.377-18.873-23.988
				c-0.089-12.876,6.262-24.871,19.226-24.871c12.612,0,18.786,12.259,18.786,24.165C273.672,66.217,266.792,77.33,254.534,77.33z"
				/>
		</g>
	</g>
</g>
<g id="A_copy_1_" enable-background="new    ">
	<g id="A_copy">
		<g>
			<path d="M57.795,23.179h-9.26L28.339,82.622h7.938l6.173-18.697h21.079l6.35,18.697h8.202L57.795,23.179z M44.038,57.927
				l5.821-17.198c1.146-3.616,2.116-7.232,2.999-10.76h0.176c0.882,3.439,1.764,6.967,3.087,10.848l5.821,17.109H44.038z"/>
		</g>
	</g>
	<rect x="-54.68" y="-46.36" display="none" fill="none" width="507" height="195"/>
</g>
</svg>
