<?xml version="1.0"?>
<!DOCTYPE svg PUBLIC "-//W3C//DTD SVG 1.1//EN" "http://www.w3.org/Graphics/SVG/1.1/DTD/svg11.dtd">
<svg xmlns="http://www.w3.org/2000/svg" xmlns:xl="http://www.w3.org/1999/xlink" version="1.1" viewBox="269 147 245 72" width="245pt" height="6pc"><metadata xmlns:dc="http://purl.org/dc/elements/1.1/"><dc:date>2013-03-07 13:31Z</dc:date><!-- Produced by OmniGraffle Professional 5.2.1 --></metadata><defs></defs><g stroke="none" stroke-opacity="1" stroke-dasharray="none" fill="none" fill-opacity="1"><title>design time</title><g><title>Layer 1</title><path d="M 295.68393 185.25533 L 295.08194 197.77232 L 295.08194 218.27632 L 301.75894 218.27632 L 301.75894 197.77232 L 301.15494 185.25533 C 301.09695 184.10933 300.12296 183.18333 298.97394 183.18333 L 297.86295 183.18333 C 296.71194 183.18333 295.73593 184.10933 295.68393 185.25533 Z" fill="#3c3c3b"/><path d="M 292.59692 183.32242 L 289.80292 179.64841 C 289.10895 178.7374 287.61691 178.00041 286.46893 178.00041 L 285.37592 178.00041 C 284.23093 178.00041 283.62793 178.67143 284.03394 179.49741 L 284.76794 180.99742 C 275.10794 181.0954 269.67993 187.60944 269.67993 198.97342 L 269.67993 217.95842 L 289.33893 217.95842 Z" fill="#3c3c3b"/><path d="M 327.38293 198.97243 C 327.38293 187.61343 321.95795 181.09543 312.29895 180.99643 C 312.62494 180.3214 313.03195 179.49243 313.03195 179.49243 C 313.43591 178.67041 312.83395 177.99342 311.68793 177.99342 L 310.59995 177.99342 C 309.44992 177.99342 307.95392 178.73643 307.26193 179.6474 L 304.46594 183.32141 L 307.72693 217.95741 L 327.38293 217.95741 Z" fill="#3c3c3b"/><path d="M 311.95193 160.90637 C 311.95193 170.48936 307.58792 178.25436 298.52893 178.25436 C 289.46094 178.25436 285.10092 170.48936 285.10092 160.90637 C 285.10092 151.31436 289.46094 147.33337 298.52893 147.33337 C 307.58792 147.33337 311.95193 151.31436 311.95193 160.90637 Z" fill="#3c3c3b"/><path d="M 506.29654 179.99509 L 506.3294 192.56018 L 494.55377 191.53033 L 494.5196 178.96393 Z" fill="#6b6b6b"/><path d="M 506.2965 179.9951 L 513.28674 176.64874 L 513.32025 189.21582 L 506.32935 192.56021 Z" fill="#3c3c3b"/><path d="M 494.51965 178.964 L 501.51187 175.6183 L 513.28687 176.6488 L 506.29663 179.99516 Z" fill="#a2a2a2"/><path d="M 454.6706 178.60535 L 454.70343 191.17175 L 442.92844 190.14127 L 442.8943 177.5755 Z" fill="#eb4c6b"/><path d="M 454.67035 178.60545 L 461.65927 175.26039 L 461.6941 187.8255 L 454.70319 191.17186 Z" fill="#317ba9"/><path d="M 442.89426 177.57552 L 449.8845 174.22916 L 461.65945 175.26033 L 454.67053 178.60538 Z" fill="#eb849a"/><path d="M 404.22284 172.27911 L 404.25635 184.84552 L 392.48135 183.81436 L 392.44653 171.24927 Z" fill="#6b6b6b"/><path d="M 404.2229 172.27917 L 411.21313 168.93349 L 411.24597 181.49924 L 404.25638 184.8456 Z" fill="#3c3c3b"/><path d="M 392.44662 171.2493 L 399.43686 167.90294 L 411.2125 168.93346 L 404.2229 172.27916 Z" fill="#a2a2a2"/><path d="M 421.3021 173.95529 L 421.33755 186.52106 L 409.5606 185.49057 L 409.52774 172.9248 Z" fill="#eb4c6b"/><path d="M 421.30212 173.95526 L 428.29303 170.60956 L 428.32654 183.17596 L 421.33759 186.52103 Z" fill="#a7364d"/><path d="M 409.5279 172.92474 L 416.51682 169.5797 L 428.2931 170.60954 L 421.30219 173.95525 Z" fill="#eb849a"/><path d="M 429.15408 180.54816 L 429.1889 193.11325 L 417.4126 192.08472 L 417.37976 179.51895 Z" fill="#624eff"/><path d="M 429.154 180.54811 L 436.1449 177.20374 L 436.17773 189.76884 L 429.1888 193.11322 Z" fill="#3f329e"/><path d="M 417.37973 179.51897 L 424.36865 176.17326 L 436.14493 177.20378 L 429.15402 180.54817 Z" fill="#968dff"/><path d="M 444.3364 181.7225 L 444.3699 194.2876 L 432.59558 193.25775 L 432.56076 180.69135 Z" fill="#6b6b6b"/><path d="M 444.33643 181.72244 L 451.32602 178.37674 L 451.36017 190.94316 L 444.36993 194.28754 Z" fill="#3c3c3b"/><path d="M 432.56082 180.69133 L 439.55237 177.34563 L 451.32602 178.37679 L 444.33643 181.72249 Z" fill="#a2a2a2"/><path d="M 444.33643 168.58662 L 444.37122 181.15369 L 432.59558 180.12187 L 432.5608 167.55743 Z" fill="#6b6b6b"/><path d="M 444.33643 168.58669 L 451.32602 165.24164 L 451.36017 177.80739 L 444.37125 181.15375 Z" fill="#3c3c3b"/><path d="M 432.56082 167.55743 L 439.55106 164.21304 L 451.32602 165.24159 L 444.33643 168.58664 Z" fill="#a2a2a2"/><path d="M 444.3364 155.36011 L 444.3699 167.9252 L 432.59558 166.89404 L 432.56076 154.32895 Z" fill="#6b6b6b"/><path d="M 444.33643 155.36023 L 451.32602 152.01387 L 451.36017 164.57964 L 444.36993 167.92534 Z" fill="#3c3c3b"/><path d="M 432.56082 154.32896 L 439.55106 150.98457 L 451.32602 152.01376 L 444.33643 155.36012 Z" fill="#a2a2a2"/><path d="M 383.7669 176.60474 L 383.80173 189.1718 L 372.02542 188.14062 L 371.99258 175.57356 Z" fill="#6b6b6b"/><path d="M 383.767 176.6048 L 390.75723 173.25909 L 390.79074 185.82617 L 383.80182 189.17188 Z" fill="#3c3c3b"/><path d="M 371.99274 175.57358 L 378.9817 172.22919 L 390.75732 173.25903 L 383.76706 176.60474 Z" fill="#a2a2a2"/><path d="M 475.7941 176.33093 L 475.8276 188.89603 L 464.05524 187.86684 L 464.0211 175.29977 Z" fill="#6b6b6b"/><path d="M 475.7942 176.33087 L 482.78183 172.98517 L 482.81665 185.55159 L 475.8277 188.89597 Z" fill="#3c3c3b"/><path d="M 464.0212 175.29971 L 471.01013 171.95401 L 482.78183 172.98517 L 475.79422 176.33087 Z" fill="#a2a2a2"/><path d="M 385.87076 182.85803 L 385.90427 195.4238 L 374.12927 194.39331 L 374.09512 181.82755 Z" fill="#eb4c6b"/><path d="M 385.8708 182.85814 L 392.8597 179.51178 L 392.89453 192.07884 L 385.9043 195.42389 Z" fill="#a7364d"/><path d="M 374.09518 181.82693 L 381.08545 178.48189 L 392.85977 179.51173 L 385.87082 182.85744 Z" fill="#eb849a"/><path d="M 373.27747 191.09891 L 373.31097 203.66466 L 361.53732 202.63547 L 361.5025 190.06905 Z" fill="#6b6b6b"/><path d="M 373.27747 191.09877 L 380.26837 187.75374 L 380.3012 200.31883 L 373.31097 203.66454 Z" fill="#3c3c3b"/><path d="M 361.50244 190.06903 L 368.49335 186.72398 L 380.2683 187.75385 L 373.2774 191.09889 Z" fill="#a2a2a2"/><path d="M 400.24738 184.83632 L 400.28021 197.40143 L 388.50653 196.37157 L 388.47107 183.80582 Z" fill="#624eff"/><path d="M 400.24731 184.83629 L 407.23755 181.49059 L 407.27106 194.05635 L 400.28015 197.40138 Z" fill="#3f329e"/><path d="M 388.47107 183.80516 L 395.46198 180.4588 L 407.23694 181.48996 L 400.24734 184.83566 Z" fill="#968dff"/><path d="M 397.92618 194.41696 L 397.961 206.98273 L 386.18405 205.95157 L 386.15186 193.3858 Z" fill="#624eff"/><path d="M 397.9268 194.41705 L 404.91702 191.07069 L 404.95053 203.63776 L 397.9616 206.9828 Z" fill="#3f329e"/><path d="M 386.1525 193.38585 L 393.14145 190.04146 L 404.91708 191.0713 L 397.92682 194.41701 Z" fill="#968dff"/><path d="M 416.71893 186.59848 L 416.75244 199.16425 L 404.97812 198.13376 L 404.9433 185.56799 Z" fill="#eb4c6b"/><path d="M 416.7189 186.59851 L 423.7085 183.25281 L 423.74265 195.81921 L 416.7524 199.16428 Z" fill="#a7364d"/><path d="M 404.9434 185.56738 L 411.93362 182.22168 L 423.7086 183.2522 L 416.719 186.5979 Z" fill="#eb849a"/><path d="M 430.78635 191.75299 L 430.8185 204.32007 L 419.04486 203.28824 L 419.01004 190.72247 Z" fill="#624eff"/><path d="M 430.78604 191.75308 L 437.77563 188.40738 L 437.81046 200.9738 L 430.81824 204.32016 Z" fill="#3f329e"/><path d="M 419.00992 190.7225 L 426.00082 187.37746 L 437.7758 188.4073 L 430.7862 191.75301 Z" fill="#968dff"/><path d="M 490.2687 185.28174 L 490.30353 197.84814 L 478.52722 196.81763 L 478.4937 184.25122 Z" fill="#eb4c6b"/><path d="M 490.26874 185.28169 L 497.25766 181.936 L 497.28986 194.50243 L 490.30356 197.84811 Z" fill="#a7364d"/><path d="M 478.49304 184.2511 L 485.482 180.90474 L 497.25696 181.9359 L 490.268 185.2816 Z" fill="#eb849a"/><path d="M 490.2687 171.95139 L 490.30353 184.51782 L 478.52658 183.4873 L 478.4937 170.92023 Z" fill="#eb4c6b"/><path d="M 490.26874 171.95142 L 497.25766 168.60573 L 497.28986 181.17215 L 490.30356 184.51784 Z" fill="#a7364d"/><path d="M 478.49304 170.92024 L 485.482 167.57454 L 497.25696 168.6057 L 490.268 171.9514 Z" fill="#eb849a"/><path d="M 466.28253 185.50888 L 466.31735 198.07465 L 454.54172 197.0448 L 454.5082 184.47839 Z" fill="#624eff"/><path d="M 466.28268 185.5089 L 473.27292 182.16319 L 473.30643 194.7296 L 466.3175 198.07466 Z" fill="#3f329e"/><path d="M 454.50824 184.47836 L 461.4972 181.13266 L 473.27216 182.16318 L 466.28256 185.50888 Z" fill="#968dff"/><path d="M 466.28253 172.37369 L 466.31735 184.94009 L 454.54172 183.90958 L 454.5082 171.34317 Z" fill="#624eff"/><path d="M 466.28268 172.37378 L 473.2736 169.02809 L 473.30643 181.59515 L 466.3175 184.9402 Z" fill="#3f329e"/><path d="M 454.50824 171.34323 L 461.49716 167.99687 L 473.27344 169.02803 L 466.28253 172.37373 Z" fill="#968dff"/><path d="M 454.90302 193.20914 L 454.93585 205.7749 L 443.1622 204.74506 L 443.12738 192.17798 Z" fill="#eb4c6b"/><path d="M 454.90366 193.20914 L 461.89325 189.86278 L 461.92807 202.42984 L 454.9365 205.77489 Z" fill="#a7364d"/><path d="M 443.128 192.17795 L 450.11826 188.83356 L 461.89258 189.8634 L 454.90363 193.20911 Z" fill="#eb849a"/><path d="M 490.2687 158.61322 L 490.30353 171.17964 L 478.52722 170.14978 L 478.4937 157.58403 Z" fill="#eb4c6b"/><path d="M 490.26874 158.61322 L 497.25766 155.26884 L 497.28986 167.83394 L 490.30356 171.17964 Z" fill="#a7364d"/><path d="M 478.49304 157.58339 L 485.482 154.23769 L 497.25696 155.2682 L 490.268 158.61259 Z" fill="#eb849a"/><path d="M 486.34897 190.3344 L 486.3818 202.90147 L 474.60617 201.87032 L 474.57138 189.30388 Z" fill="#624eff"/><path d="M 486.3489 190.33441 L 493.33783 186.98936 L 493.37265 199.55579 L 486.38174 202.90147 Z" fill="#3f329e"/><path d="M 474.5712 189.30385 L 481.56277 185.9588 L 493.33774 186.9893 L 486.34879 190.33435 Z" fill="#968dff"/><path d="M 386.98996 201.00131 L 387.02478 213.56772 L 375.2452 212.53656 L 375.21301 199.97147 Z" fill="#eb4c6b"/><path d="M 386.98996 201.00131 L 393.97888 197.65562 L 394.0137 210.22205 L 387.02478 213.56773 Z" fill="#a7364d"/><path d="M 375.21317 199.9715 L 382.20276 196.62514 L 393.97903 197.65565 L 386.99011 201.00136 Z" fill="#eb849a"/><path d="M 420.77405 199.39221 L 420.80887 211.95862 L 409.03323 210.92746 L 408.99973 198.3617 Z" fill="#6b6b6b"/><path d="M 420.77402 199.39217 L 427.76492 196.0471 L 427.79971 208.61287 L 420.8088 211.95857 Z" fill="#3c3c3b"/><path d="M 408.99985 198.3617 L 415.98944 195.01665 L 427.76505 196.04715 L 420.77414 199.3922 Z" fill="#a2a2a2"/><path d="M 494.98578 199.49469 L 495.02057 212.0611 L 483.2443 211.03061 L 483.21014 198.46484 Z" fill="#eb4c6b"/><path d="M 494.98587 199.49467 L 501.97546 196.14961 L 502.0096 208.71538 L 495.0207 212.06108 Z" fill="#a7364d"/><path d="M 483.21094 198.46484 L 490.2012 195.1198 L 501.97552 196.14966 L 494.98657 199.4947 Z" fill="#eb849a"/><path d="M 453.90866 202.06006 L 453.94348 214.62517 L 442.1685 213.59598 L 442.13367 201.02956 Z" fill="#624eff"/><path d="M 453.90854 202.06004 L 460.90009 198.71434 L 460.9316 211.28076 L 453.94336 214.62514 Z" fill="#3f329e"/><path d="M 442.13364 201.02954 L 449.12454 197.68384 L 460.90018 198.71436 L 453.9086 202.06006 Z" fill="#968dff"/></g></g></svg>
