<?xml version="1.0"?>
<!DOCTYPE svg PUBLIC "-//W3C//DTD SVG 1.1//EN" "http://www.w3.org/Graphics/SVG/1.1/DTD/svg11.dtd">
<svg xmlns="http://www.w3.org/2000/svg" xmlns:xl="http://www.w3.org/1999/xlink" version="1.1" viewBox="258 137 267 72" width="267pt" height="6pc"><metadata xmlns:dc="http://purl.org/dc/elements/1.1/"><dc:date>2013-03-07 13:31Z</dc:date><!-- Produced by OmniGraffle Professional 5.2.1 --></metadata><defs></defs><g stroke="none" stroke-opacity="1" stroke-dasharray="none" fill="none" fill-opacity="1"><title>presentation time</title><g><title>Layer 1</title><path d="M 284.08661 175.71892 L 283.48462 188.23592 L 283.48462 208.73991 L 290.16162 208.73991 L 290.16162 188.23592 L 289.55762 175.71892 C 289.49963 174.57292 288.52563 173.64693 287.37662 173.64693 L 286.26562 173.64693 C 285.11462 173.64693 284.13861 174.57292 284.08661 175.71892 Z" fill="#3c3c3b"/><path d="M 280.99963 173.78595 L 278.20563 170.11194 C 277.51166 169.20093 276.01962 168.46394 274.87164 168.46394 L 273.77863 168.46394 C 272.63364 168.46394 272.03064 169.13496 272.43665 169.96094 L 273.17065 171.46095 C 263.51065 171.55893 258.08264 178.07297 258.08264 189.43695 L 258.08264 208.42195 L 277.74164 208.42195 Z" fill="#3c3c3b"/><path d="M 315.78558 189.43593 C 315.78558 178.07693 310.3606 171.55893 300.7016 171.45993 C 301.02759 170.7849 301.4346 169.95593 301.4346 169.95593 C 301.83856 169.13391 301.2366 168.45692 300.09058 168.45692 L 299.0026 168.45692 C 297.85257 168.45692 296.35657 169.19994 295.66458 170.1109 L 292.8686 173.78491 L 296.12958 208.42091 L 315.78558 208.42091 Z" fill="#3c3c3b"/><path d="M 300.35464 151.36989 C 300.35464 160.95288 295.99063 168.71788 286.93164 168.71788 C 277.86365 168.71788 273.50363 160.95288 273.50363 151.36989 C 273.50363 141.77788 277.86365 137.79689 286.93164 137.79689 C 295.99063 137.79689 300.35464 141.77788 300.35464 151.36989 Z" fill="#3c3c3b"/><path d="M 500.34216 157.71756 C 500.34216 161.95155 498.41415 165.38457 494.40817 165.38457 C 490.40115 165.38457 488.47418 161.95155 488.47418 157.71756 C 488.47418 153.48157 490.40115 151.71956 494.40817 151.71956 C 498.41415 151.71956 500.34216 153.48157 500.34216 157.71756 Z" fill="#3c3c3b"/><path d="M 514.5232 168.75356 C 514.5232 172.98854 512.59515 176.42155 508.5882 176.42155 C 504.58218 176.42155 502.65417 172.98854 502.65417 168.75356 C 502.65417 164.51755 504.58218 162.75655 508.5882 162.75655 C 512.59515 162.75655 514.5232 164.51755 514.5232 168.75356 Z" fill="#3c3c3b"/><path d="M 522.4312 185.06654 L 517.89423 184.51054 L 518.17523 182.22255 L 522.7132 182.77855 Z" fill="#3c3c3b"/><path d="M 523.26917 185.9093 L 516.8802 185.1263 L 517.1432 182.99829 C 516.8092 182.95628 516.3982 182.9063 516.3982 182.9063 C 515.98822 182.85529 515.6042 183.2233 515.54218 183.7253 L 514.4212 192.8593 C 514.3592 193.3633 514.71716 193.8203 515.2202 193.88429 L 522.76318 194.81029 C 523.26617 194.8723 523.72516 194.51428 523.7862 194.01129 L 524.90918 184.87529 C 524.96918 184.37228 524.68616 183.9213 524.27618 183.87129 L 523.5312 183.7793 Z" fill="#3c3c3b"/><path d="M 481.5332 165.34351 C 481.5332 169.57751 479.6052 173.01051 475.5982 173.01051 C 471.5922 173.01051 469.66418 169.57751 469.66418 165.34351 C 469.66418 161.10751 471.5922 159.34651 475.5982 159.34651 C 479.6052 159.34651 481.5332 161.10751 481.5332 165.34351 Z" fill="#3c3c3b"/><path d="M 489.44122 181.65654 L 484.90424 181.09955 L 485.1852 178.81355 L 489.7232 179.36955 Z" fill="#3c3c3b"/><path d="M 490.27927 182.49928 L 483.89026 181.71529 L 484.15326 179.58829 C 483.81924 179.5473 483.40826 179.49728 483.40826 179.49728 C 482.99826 179.44629 482.61426 179.81429 482.55225 180.31628 L 481.43124 189.45027 C 481.36926 189.95428 481.72726 190.41127 482.23026 190.47429 L 489.77325 191.40128 C 490.27628 191.46228 490.73526 191.10529 490.79626 190.60228 L 491.91925 181.46428 C 491.97925 180.96228 491.69626 180.51228 491.28625 180.46228 L 490.54126 180.37029 Z" fill="#3c3c3b"/><path d="M 482.32526 173.19052 C 482.51324 172.88553 482.25525 172.63753 481.74725 172.63753 L 481.05225 172.63753 C 480.66626 172.63753 480.05325 172.91852 479.68225 173.26552 L 475.67325 177.01753 L 471.66425 173.26552 C 471.29526 172.91852 470.64926 172.63753 470.22327 172.63753 L 469.45325 172.63753 C 468.94525 172.63753 468.68326 172.87552 468.86624 173.16753 L 469.19827 173.69853 C 464.80026 173.72653 462.33426 176.61052 462.33426 181.64752 L 462.33426 190.03651 L 467.26126 190.03651 C 467.59525 188.66852 467.84726 187.23651 467.84726 186.01852 C 467.84726 183.31853 468.74026 186.78653 468.88428 190.03651 L 479.39624 190.03651 C 479.90326 190.03651 480.36426 189.62851 480.42825 189.12552 L 481.53726 180.08353 C 481.66125 179.07552 482.25726 178.32053 482.87024 178.39552 L 484.27625 178.56752 L 484.36224 177.87051 L 487.85025 178.29852 C 486.99527 175.53552 484.98126 173.92752 481.98227 173.74353 C 482.13724 173.49551 482.32526 173.19052 482.32526 173.19052 Z" fill="#3c3c3b"/><path d="M 515.31512 176.59955 C 515.5031 176.29456 515.24512 176.04756 514.73712 176.04756 L 514.0421 176.04756 C 513.65613 176.04756 513.04315 176.32756 512.67212 176.67555 L 508.66312 180.42757 L 504.6541 176.67555 C 504.28513 176.32756 503.63913 176.04756 503.21313 176.04756 L 502.44312 176.04756 C 501.93512 176.04756 501.67313 176.28455 501.8561 176.57756 L 502.18814 177.10756 C 497.79013 177.13657 495.32413 180.02055 495.32413 185.05756 L 495.32413 193.44655 L 500.25113 193.44655 C 500.5851 192.07755 500.83713 190.64655 500.83713 189.42856 C 500.83713 186.72955 501.7311 190.19656 501.87415 193.44655 L 512.3861 193.44655 C 512.89313 193.44655 513.35413 193.03854 513.41815 192.53555 L 514.52814 183.49255 C 514.65112 182.48456 515.24713 181.72955 515.8601 181.80455 L 517.2661 181.97755 L 517.3521 181.27956 L 520.84015 181.70755 C 519.9851 178.94456 517.97113 177.33656 514.9721 177.15254 C 515.12714 176.90555 515.31512 176.59955 515.31512 176.59955 Z" fill="#3c3c3b"/><path d="M 501.8272 168.75352 C 501.8272 167.87253 501.91122 167.07953 502.0742 166.37154 C 501.64423 166.23354 501.21823 166.14253 500.80423 166.11754 C 500.9572 165.86952 501.14423 165.56552 501.14423 165.56552 C 501.3332 165.26053 501.0762 165.01253 500.5682 165.01253 L 499.87122 165.01253 C 499.4862 165.01253 498.87323 165.29254 498.5032 165.64053 L 494.4932 169.39253 L 490.4852 165.64053 C 490.1152 165.29254 489.47018 165.01253 489.04523 165.01253 L 488.27322 165.01253 C 487.7652 165.01253 487.50323 165.24953 487.6872 165.54153 L 488.01822 166.072525 C 484.3132 166.09753 481.9862 168.15453 481.3442 171.81253 L 481.7532 171.81253 C 482.3642 171.81253 482.8482 172.05254 483.08023 172.47054 C 483.1842 172.65453 483.2282 172.85953 483.2152 173.06653 C 485.8942 173.59152 487.80222 175.32852 488.6462 178.05452 L 488.75922 178.41853 L 489.82822 178.54953 L 490.64822 178.64954 L 490.5472 179.47153 L 490.53922 179.53752 L 490.64322 179.55052 L 491.3882 179.64153 C 491.77722 179.68953 492.1332 179.89352 492.38522 180.21654 C 492.6712 180.58353 492.80222 181.07553 492.7402 181.56554 L 492.6372 182.40953 L 494.7622 182.40953 C 495.47922 178.95753 497.67722 176.79753 500.9782 176.36252 C 500.98322 176.19553 501.0282 176.03053 501.11023 175.88052 C 501.3422 175.46153 501.8302 175.22153 502.44922 175.22153 L 503.2202 175.22153 C 503.4852 175.22153 503.78723 175.29453 504.0862 175.40253 C 502.6512 173.92253 501.8272 171.62354 501.8272 168.75352 Z" fill="#3c3c3b"/><path d="M 403.8154 174.04691 L 403.84424 184.45161 L 394.09482 183.59837 L 394.06598 173.19475 Z" fill="#6eb661"/><path d="M 403.8154 174.04692 L 409.60315 171.27676 L 409.63144 181.68201 L 403.84424 184.45163 Z" fill="#4c9245"/><path d="M 394.0666 173.19475 L 399.85544 170.42513 L 409.6032 171.27673 L 403.81598 174.04689 Z" fill="#a3d094"/><path d="M 403.8154 163.06628 L 403.84424 173.47098 L 394.09482 172.61775 L 394.06598 162.21359 Z" fill="#6eb661"/><path d="M 403.8154 163.06572 L 409.60315 160.29665 L 409.63144 170.70026 L 403.84424 173.47041 Z" fill="#4c9245"/><path d="M 394.0666 162.21355 L 399.85544 159.44447 L 409.6032 160.297165 L 403.81598 163.06624 Z" fill="#a3d094"/><path d="M 403.8154 152.08566 L 403.84424 162.48929 L 394.09482 161.6366 L 394.06598 151.23297 Z" fill="#6b6b6b"/><path d="M 403.8154 152.0856 L 409.60315 149.315445 L 409.63144 159.72014 L 403.84424 162.48921 Z" fill="#3c3c3b"/><path d="M 394.0666 151.23297 L 399.85544 148.46225 L 409.6032 149.31549 L 403.81598 152.08566 Z" fill="#979797"/><path d="M 414.08972 174.95284 L 414.11746 185.35753 L 404.36694 184.5043 L 404.3392 174.10014 Z" fill="#6b6b6b"/><path d="M 414.08978 174.95287 L 419.87646 172.18324 L 419.90472 182.5874 L 414.11752 185.35756 Z" fill="#3c3c3b"/><path d="M 404.33914 174.10011 L 410.1269 171.33049 L 419.87576 172.18318 L 414.08963 174.9528 Z" fill="#979797"/><path d="M 414.08972 163.971115 L 414.11746 174.37582 L 404.36694 173.52312 L 404.3392 163.11896 Z" fill="#6b6b6b"/><path d="M 414.08978 163.97113 L 419.87646 161.20206 L 419.90472 171.60567 L 414.11752 174.37582 Z" fill="#3c3c3b"/><path d="M 404.33914 163.11897 L 410.1269 160.34935 L 419.87576 161.20204 L 414.08963 163.971115 Z" fill="#979797"/><path d="M 414.08972 152.99057 L 414.11746 163.39418 L 404.36694 162.54202 L 404.3392 152.13841 Z" fill="#6b6b6b"/><path d="M 414.08978 152.990555 L 419.87646 150.2204 L 419.90472 160.62564 L 414.11752 163.394165 Z" fill="#3c3c3b"/><path d="M 404.33914 152.13843 L 410.1269 149.36772 L 419.87576 150.22096 L 414.08963 152.990585 Z" fill="#979797"/><path d="M 424.35303 175.89902 L 424.38077 186.30371 L 414.63135 185.44994 L 414.6025 175.04633 Z" fill="#6b6b6b"/><path d="M 424.35297 175.89911 L 430.14072 173.12895 L 430.1679 183.53366 L 424.3807 186.30382 Z" fill="#3c3c3b"/><path d="M 414.60245 175.04637 L 420.39023 172.27675 L 430.14017 173.12889 L 424.35294 175.89906 Z" fill="#979797"/><path d="M 424.35303 164.91737 L 424.38077 175.32208 L 414.63135 174.46938 L 414.6025 164.06522 Z" fill="#6b6b6b"/><path d="M 424.35297 164.91736 L 430.14072 162.14774 L 430.1679 172.5519 L 424.3807 175.32205 Z" fill="#3c3c3b"/><path d="M 414.60245 164.0647 L 420.39023 161.29507 L 430.14017 162.14777 L 424.35294 164.91684 Z" fill="#979797"/><path d="M 424.35303 153.93675 L 424.38077 164.34091 L 414.63135 163.48767 L 414.6025 153.084045 Z" fill="#6b6b6b"/><path d="M 424.35297 153.93687 L 430.14072 151.16617 L 430.1679 161.57196 L 424.3807 164.34103 Z" fill="#3c3c3b"/><path d="M 414.60245 153.08412 L 420.39023 150.31395 L 430.14017 151.16611 L 424.35294 153.93681 Z" fill="#979797"/><path d="M 401.32193 181.78476 L 407.1086 179.01514 L 407.13797 189.41876 L 401.35077 192.18784 Z" fill="#a7364d"/><path d="M 380.7857 179.93362 L 380.81454 190.33725 L 371.06293 189.48564 L 371.03629 179.08093 Z" fill="#4b96c5"/><path d="M 380.78574 179.93359 L 386.57458 177.16397 L 386.60068 187.5676 L 380.81454 190.33722 Z" fill="#317ba9"/><path d="M 371.0362 179.08092 L 376.82397 176.3102 L 386.57391 177.16399 L 380.78561 179.93361 Z" fill="#7fb1d4"/><path d="M 380.7857 168.95192 L 380.81454 179.35661 L 371.06293 178.50392 L 371.03629 168.09923 Z" fill="#4b96c5"/><path d="M 380.78574 168.95184 L 386.57458 166.18222 L 386.60068 176.58638 L 380.81454 179.35654 Z" fill="#317ba9"/><path d="M 371.0362 168.09921 L 376.82397 165.32904 L 386.57391 166.18228 L 380.78561 168.9519 Z" fill="#7fb1d4"/><path d="M 380.7857 157.97079 L 380.81454 168.37442 L 371.06293 167.52226 L 371.03629 157.11755 Z" fill="#eb4c6b"/><path d="M 380.78574 157.970825 L 386.57458 155.20067 L 386.60068 165.60591 L 380.81454 168.37444 Z" fill="#a7364d"/><path d="M 371.0362 157.11754 L 376.82397 154.34737 L 386.57391 155.20061 L 380.78561 157.97078 Z" fill="#eb849a"/><path d="M 391.05713 180.83904 L 391.08597 191.24266 L 381.33655 190.39105 L 381.3077 179.98634 Z" fill="#eb4c6b"/><path d="M 391.0582 180.83911 L 396.84705 178.06949 L 396.87314 188.47311 L 391.087 191.24274 Z" fill="#a7364d"/><path d="M 381.30817 179.98579 L 387.09485 177.21562 L 396.84589 178.06941 L 391.05759 180.83849 Z" fill="#eb849a"/><path d="M 391.05713 169.85735 L 391.08597 180.2615 L 381.33655 179.40935 L 381.3077 169.00464 Z" fill="#eb4c6b"/><path d="M 391.0582 169.85738 L 396.84705 167.08777 L 396.87314 177.49193 L 391.087 180.26154 Z" fill="#a7364d"/><path d="M 381.30817 169.0047 L 387.09485 166.23398 L 396.84589 167.08777 L 391.05759 169.85739 Z" fill="#eb849a"/><path d="M 391.05759 158.87685 L 391.08643 169.28046 L 381.337 168.42831 L 381.30817 158.02307 Z" fill="#eb4c6b"/><path d="M 391.0582 158.87679 L 396.84705 156.10663 L 396.87314 166.51132 L 391.087 169.2804 Z" fill="#a7364d"/><path d="M 381.30817 158.02296 L 387.09485 155.25334 L 396.84589 156.10713 L 391.05759 158.876755 Z" fill="#eb849a"/><path d="M 401.32162 181.78477 L 401.35046 192.18785 L 391.59995 191.33624 L 391.5722 180.93153 Z" fill="#eb4c6b"/><path d="M 391.57266 180.93201 L 397.36041 178.16183 L 407.10818 179.01562 L 401.32205 181.78525 Z" fill="#eb849a"/><path d="M 401.32162 170.80362 L 401.35046 181.20831 L 391.59995 180.35562 L 391.5722 169.95093 Z" fill="#eb4c6b"/><path d="M 401.32193 170.80367 L 407.1086 168.03404 L 407.13797 178.4382 L 401.35077 181.20836 Z" fill="#a7364d"/><path d="M 391.57266 169.95035 L 397.36041 167.17963 L 407.10818 168.03395 L 401.32205 170.80304 Z" fill="#eb849a"/><path d="M 401.32162 159.82242 L 401.35046 170.22603 L 391.59995 169.37389 L 391.5722 158.96864 Z" fill="#eb4c6b"/><path d="M 401.32193 159.82248 L 407.1086 157.05232 L 407.13797 167.45702 L 401.35077 170.22609 Z" fill="#a7364d"/><path d="M 391.57266 158.96866 L 397.36041 156.1985 L 407.10818 157.05228 L 401.32205 159.82243 Z" fill="#eb849a"/><path d="M 357.70145 185.81923 L 357.72919 196.22339 L 347.97977 195.37015 L 347.95203 184.96545 Z" fill="#3f329e"/><path d="M 357.70142 185.8193 L 363.48917 183.0486 L 363.51746 193.45331 L 357.72916 196.22346 Z" fill="#2a216d"/><path d="M 347.952 184.96547 L 353.73975 182.19531 L 363.48862 183.04909 L 357.70139 185.81924 Z" fill="#968dff"/><path d="M 357.70145 174.83763 L 357.72919 185.24234 L 347.97977 184.38857 L 347.95203 173.98386 Z" fill="#3f329e"/><path d="M 357.70142 174.83759 L 363.48917 172.06743 L 363.51746 182.47214 L 357.72916 185.24229 Z" fill="#2a216d"/><path d="M 347.952 173.9838 L 353.73975 171.21364 L 363.48862 172.06741 L 357.70139 174.83757 Z" fill="#968dff"/><path d="M 357.70145 163.85638 L 357.72919 174.26109 L 347.97977 173.40732 L 347.95203 163.00261 Z" fill="#3f329e"/><path d="M 357.70142 163.85645 L 363.48917 161.08629 L 363.51746 171.491 L 357.72916 174.26115 Z" fill="#2a216d"/><path d="M 347.952 163.00262 L 353.73975 160.23355 L 363.48862 161.08624 L 357.70139 163.85641 Z" fill="#968dff"/><path d="M 367.97287 186.72414 L 368.0017 197.12938 L 358.2512 196.27505 L 358.22345 185.8709 Z" fill="#3f329e"/><path d="M 367.9729 186.72417 L 373.76175 183.954 L 373.78894 194.35924 L 368.00174 197.12941 Z" fill="#2a216d"/><path d="M 358.2241 185.87091 L 364.01187 183.1002 L 373.7618 183.95398 L 367.9735 186.72414 Z" fill="#968dff"/><path d="M 367.97287 175.74298 L 368.0017 186.14769 L 358.2512 185.29391 L 358.22345 174.88921 Z" fill="#3f329e"/><path d="M 367.9729 175.74304 L 373.76175 172.97289 L 373.78894 183.37759 L 368.00174 186.14775 Z" fill="#2a216d"/><path d="M 358.2241 174.88931 L 364.01187 172.11969 L 373.7618 172.97293 L 367.9735 175.7431 Z" fill="#968dff"/><path d="M 367.97287 164.76128 L 368.0017 175.16652 L 358.2512 174.31274 L 358.22345 163.90913 Z" fill="#3f329e"/><path d="M 367.9729 164.76135 L 373.76175 161.99118 L 373.78894 172.39642 L 368.00174 175.1666 Z" fill="#2a216d"/><path d="M 358.2241 163.908615 L 364.01187 161.13844 L 373.7618 161.99113 L 367.9735 164.76076 Z" fill="#968dff"/><path d="M 378.2374 187.67041 L 378.26514 198.07457 L 368.51572 197.22134 L 368.48688 186.81718 Z" fill="#3f329e"/><path d="M 378.2373 187.6704 L 384.02505 184.90024 L 384.05334 195.3044 L 378.26505 198.07455 Z" fill="#2a216d"/><path d="M 368.4874 186.81711 L 374.27625 184.0464 L 384.02512 184.90018 L 378.23788 187.67033 Z" fill="#968dff"/><path d="M 378.2374 176.68872 L 378.26514 187.09341 L 368.51572 186.23964 L 368.48688 175.83548 Z" fill="#3f329e"/><path d="M 378.2373 176.68864 L 384.02505 173.91849 L 384.05334 184.3232 L 378.26505 187.09335 Z" fill="#2a216d"/><path d="M 368.4874 175.83543 L 374.27625 173.06473 L 384.02512 173.9185 L 378.23788 176.68866 Z" fill="#968dff"/><path d="M 378.2374 165.70702 L 378.26514 176.11226 L 368.51572 175.25848 L 368.48688 164.853775 Z" fill="#3f329e"/><path d="M 378.2373 165.70697 L 384.02505 162.9368 L 384.05334 173.34151 L 378.26505 176.11221 Z" fill="#2a216d"/><path d="M 368.4874 164.85432 L 374.27625 162.0847 L 384.02512 162.93739 L 378.23788 165.70757 Z" fill="#968dff"/></g></g></svg>
