<?xml version="1.0"?>
<!DOCTYPE svg PUBLIC "-//W3C//DTD SVG 1.1//EN" "http://www.w3.org/Graphics/SVG/1.1/DTD/svg11.dtd">
<svg xmlns="http://www.w3.org/2000/svg" xmlns:xl="http://www.w3.org/1999/xlink" version="1.1" viewBox="311 134 161 121" width="161pt" height="121pt"><metadata xmlns:dc="http://purl.org/dc/elements/1.1/"><dc:date>2013-03-07 13:34Z</dc:date><!-- Produced by OmniGraffle Professional 5.2.1 --></metadata><defs></defs><g stroke="none" stroke-opacity="1" stroke-dasharray="none" fill="none" fill-opacity="1"><title>Statistics</title><g><title>Layer 1</title><path d="M 329.75885 135.77298 L 329.75885 148.93498 C 331.33286 149.81697 332.43985 151.44298 332.54285 153.34398 L 343.55786 159.69098 C 344.92484 157.35699 345.70184 154.63898 345.70184 151.71899 C 345.70184 149.67798 345.31885 147.72798 344.61887 145.93797 L 337.14285 147.290985 L 341.72983 141.18997 C 338.80685 137.872986 334.52884 135.77298 329.75885 135.77298 Z" fill="#eb4c6b"/><path d="M 343.48883 138.85098 L 341.72885 141.18999 L 337.14185 147.28998 L 344.61783 145.93797 L 347.53583 145.40799 Z" fill="#3c3c3b"/><path d="M 327.14886 137.72897 C 318.34686 137.72897 311.20386 144.869965 311.20386 153.67197 C 311.20386 156.57997 311.98285 159.31198 313.34888 161.64597 L 322.46286 156.38698 C 321.99487 155.58997 321.71884 154.67596 321.71884 153.67197 C 321.71884 150.68297 324.13986 148.239975 327.14886 148.239975 Z" fill="#3f329e"/><path d="M 331.83383 156.38698 C 330.89883 158.01198 329.15283 159.11697 327.14685 159.11697 C 325.14185 159.11697 323.39484 158.01198 322.46085 156.38698 L 313.34885 161.646 C 316.09784 166.41499 321.25082 169.63399 327.14685 169.63399 C 333.06085 169.63399 338.19583 166.41499 340.94583 161.646 Z" fill="#624eff"/><path d="M 450.4122 153.357025 C 450.4122 151.30203 451.5622 149.53902 453.2422 148.61702 L 453.2422 136.10002 C 444.43317 136.10002 437.29218 143.24602 437.29218 152.05301 C 437.29218 154.96103 438.07819 157.67801 439.43918 160.02602 L 450.44217 153.671005 C 450.4372 153.56703 450.4122 153.46303 450.4122 153.357025 Z" fill="#eb4c6b"/><path d="M 435.57617 146.20306 L 446.0622 147.48506 L 439.23517 139.42906 Z" fill="#3c3c3b"/><path d="M 455.84717 137.40306 L 455.84717 147.92206 C 458.84717 147.92206 461.28314 150.354065 461.28314 153.35707 C 461.28314 154.34805 460.99515 155.26205 460.53516 156.06107 L 469.65216 161.326065 C 471.00717 158.98106 471.79614 156.26308 471.79614 153.35707 C 471.79614 144.54707 464.65915 137.40306 455.84717 137.40306 Z" fill="#6b6b6b"/><path d="M 460.5352 156.06401 C 459.5962 157.68602 457.86017 158.79301 455.84616 158.79301 C 453.83517 158.79301 452.09918 157.68602 451.16016 156.06102 L 442.0442 161.32602 C 444.80118 166.09201 449.94418 169.30702 455.84616 169.30702 C 461.75418 169.30702 466.89417 166.09201 469.65216 161.32602 Z" fill="#968dff"/><path d="M 394.43454 154.54999 C 393.59753 155.07399 392.61755 155.38998 391.55756 155.38998 C 390.49753 155.38998 389.51553 155.07399 388.68054 154.54999 L 377.75354 160.85898 C 380.51254 165.62198 385.65454 168.83798 391.55756 168.83798 C 397.46152 168.83798 402.60052 165.62198 405.35754 160.85898 Z" fill="#eb4c6b"/><path d="M 395.82452 171.189 L 391.69052 161.46999 L 388.12952 171.407 Z" fill="#3c3c3b"/><path d="M 386.12253 149.953995 C 386.12253 146.95099 388.5555 144.51799 391.55853 144.51799 L 391.55853 134.00299 C 382.74854 134.00299 375.6065 141.143005 375.6065 149.953995 C 375.6065 152.86 376.39453 155.578 377.75253 157.923 L 386.87051 152.66101 C 386.40652 151.85899 386.12253 150.94501 386.12253 149.953995 Z" fill="#624eff"/><path d="M 391.55652 134 L 391.55652 144.519 C 394.5575 144.519 396.99152 146.951 396.99152 149.95401 C 396.99152 150.94499 396.7045 151.85899 396.2445 152.658005 L 405.3585 157.923 C 406.71552 155.578 407.5055 152.86002 407.5055 149.95401 C 407.5055 141.14401 400.3675 134 391.55652 134 Z" fill="#3c3c3b"/><path d="M 406.47394 205.60983 C 406.47394 213.51483 403.37433 219.92429 396.93207 219.92429 C 390.48553 219.92429 387.38593 213.51483 387.38593 205.60983 C 387.38593 197.7007 390.48553 194.41678 396.93207 194.41678 C 403.37433 194.41678 406.47394 197.7007 406.47394 205.60983 Z" fill="#3c3c3b"/><path d="M 419.20218 236.06001 L 411.90558 235.02394 L 412.35617 230.75096 L 419.65704 231.7895 Z" fill="#3c3c3b"/><path d="M 420.54459 237.63 L 410.27274 236.16827 L 410.68997 232.1972 C 410.1569 232.12051 409.49448 232.02728 409.49448 232.02728 C 408.83417 231.9349 408.21725 232.61626 408.11774 233.5583 L 406.31738 250.60727 C 406.2179 251.54353 406.79147 252.39978 407.6003 252.51445 L 419.7329 254.24426 C 420.54245 254.36304 421.27737 253.6924 421.3776 252.75613 L 423.18433 235.70139 C 423.28384 234.76099 422.8254 233.92456 422.1651 233.8305 L 420.9682 233.65646 Z" fill="#3c3c3b"/><path d="M 407.75894 220.25581 C 408.06244 219.685 407.64948 219.22388 406.83212 219.22388 L 405.70984 219.22388 C 405.0908 219.22388 404.10281 219.74686 403.50793 220.39442 L 397.06137 227.39862 L 390.6134 220.39442 C 390.02063 219.74686 388.98007 219.22388 388.29492 219.22388 L 387.0575 219.22388 C 386.24084 219.22388 385.8208 219.66684 386.11432 220.21376 L 386.646 221.20612 C 379.57681 221.2556 375.60654 226.6397 375.60654 236.0452 L 375.60654 251.69928 L 383.53287 251.69928 C 384.06735 249.14539 384.47464 246.47107 384.47464 244.20012 C 384.47464 239.16 385.91034 245.63298 386.14062 251.69928 L 403.0502 251.69928 C 403.86475 251.69928 404.60532 250.93709 404.70554 250.00082 L 406.49167 233.12093 C 406.6914 231.24098 407.6516 229.83125 408.63458 229.9731 L 410.89694 230.29237 L 411.03836 228.98985 L 416.64694 229.79082 C 415.2702 224.63025 412.03204 221.63176 407.20883 221.28778 C 407.45544 220.82335 407.75894 220.25581 407.75894 220.25581 Z" fill="#3c3c3b"/></g></g></svg>
