<?xml version="1.0" encoding="UTF-8" standalone="no"?>
<!-- Created with Inkscape (http://www.inkscape.org/) -->

<svg
   xmlns:dc="http://purl.org/dc/elements/1.1/"
   xmlns:cc="http://creativecommons.org/ns#"
   xmlns:rdf="http://www.w3.org/1999/02/22-rdf-syntax-ns#"
   xmlns:svg="http://www.w3.org/2000/svg"
   xmlns="http://www.w3.org/2000/svg"
   xmlns:sodipodi="http://sodipodi.sourceforge.net/DTD/sodipodi-0.dtd"
   xmlns:inkscape="http://www.inkscape.org/namespaces/inkscape"
   width="752.5"
   height="533.75"
   id="svg2"
   version="1.1"
   inkscape:version="0.48.2 r9819"
   sodipodi:docname="viz-fb.svg">
  <defs
     id="defs4">
    <clipPath
       id="clipPath3066"
       clipPathUnits="userSpaceOnUse">
      <path
         id="path3068"
         d="M 0,0 602,0 602,427 0,427 0,0 z"
         inkscape:connector-curvature="0" />
    </clipPath>
  </defs>
  <sodipodi:namedview
     id="base"
     pagecolor="#ffffff"
     bordercolor="#666666"
     borderopacity="1.0"
     inkscape:pageopacity="0.0"
     inkscape:pageshadow="2"
     inkscape:zoom="1.1596551"
     inkscape:cx="333.46998"
     inkscape:cy="260.42467"
     inkscape:document-units="px"
     inkscape:current-layer="layer1"
     showgrid="false"
     fit-margin-top="0"
     fit-margin-left="0"
     fit-margin-right="0"
     fit-margin-bottom="0"
     inkscape:window-width="1062"
     inkscape:window-height="899"
     inkscape:window-x="2299"
     inkscape:window-y="233"
     inkscape:window-maximized="0" />
  <metadata
     id="metadata7">
    <rdf:RDF>
      <cc:Work
         rdf:about="">
        <dc:format>image/svg+xml</dc:format>
        <dc:type
           rdf:resource="http://purl.org/dc/dcmitype/StillImage" />
        <dc:title></dc:title>
      </cc:Work>
    </rdf:RDF>
  </metadata>
  <g
     inkscape:label="Layer 1"
     inkscape:groupmode="layer"
     id="layer1"
     transform="translate(-20.091462,-195.24328)">
    <g
       id="g3060"
       transform="matrix(1.25,0,0,-1.25,20.091462,728.99328)" />
    <path
       inkscape:connector-curvature="0"
       d="m 20.091462,728.99328 752.499998,0 0,-533.75 -752.499998,0 0,533.75 z"
       style="fill:#ffffff;fill-opacity:0;fill-rule:evenodd;stroke:none"
       id="path3070" />
    <g
       id="g3072"
       transform="matrix(1.25,0,0,-1.25,254.09146,679.49329)">
      <text
         transform="matrix(1,0,0,-1,40.40088,-14)"
         id="text3074">
        <tspan
           style="font-size:14px;font-variant:normal;font-weight:normal;writing-mode:lr-tb;fill:#000000;fill-opacity:1;fill-rule:nonzero;stroke:none;font-family:Franklin Gothic Book;-inkscape-font-specification:FranklinGothic-Book"
           x="0 7.9702001 15.449 20.0634 23.2764 30.864401"
           y="0"
           sodipodi:role="line"
           id="tspan3076">Spring</tspan>
      </text>
    </g>
    <g
       id="g3078"
       transform="matrix(1.25,0,0,-1.25,254.09146,679.49329)">
      <text
         transform="matrix(1,0,0,-1,81.64209,-14)"
         id="text3080">
        <tspan
           style="font-size:14px;font-variant:normal;font-weight:normal;writing-mode:lr-tb;fill:#000000;fill-opacity:1;fill-rule:nonzero;stroke:none;font-family:Franklin Gothic Book;-inkscape-font-specification:FranklinGothic-Book"
           x="0 7.9702001 15.2572 26.6532 33.940201 40.434799 44.501801 51.788799 56.403198 59.903198 68.112801 75.789001 83.746597 88.4562"
           y="0"
           sodipodi:role="line"
           id="tspan3082">Semester 2011</tspan>
      </text>
    </g>
    <path
       inkscape:connector-curvature="0"
       d="m 25.091462,230.7749 c 0,-10.3555 8.394837,-18.75037 18.750387,-18.75037 l 703.749241,0 c 10.3555,0 18.75037,8.39487 18.75037,18.75037 l 0,74.99925 c 0,10.35563 -8.39487,18.75038 -18.75037,18.75038 l -703.74924,0 c -10.355551,0 -18.750388,-8.39475 -18.750388,-18.75037 l 0,-74.99925 z"
       style="fill:#4d7394;fill-opacity:1;fill-rule:evenodd;stroke:none"
       id="path3096" />
    <path
       inkscape:connector-curvature="0"
       d="m 428.76721,314.9934 0,-39.16674 25.2305,0 -58.125,66.66674 -58.125,-66.66674 25.23063,0 0,39.16674 65.78887,0 z"
       style="fill:#4d7394;fill-opacity:1;fill-rule:evenodd;stroke:none"
       id="path3098" />
    <path
       inkscape:connector-curvature="0"
       d="m 25.091462,360.7749 c 0,-10.3555 8.394837,-18.75037 18.750387,-18.75037 l 703.749241,0 c 10.3555,0 18.75037,8.39487 18.75037,18.75037 l 0,74.99925 c 0,10.35563 -8.39487,18.75038 -18.75037,18.75038 l -703.74924,0 c -10.355551,0 -18.750388,-8.39475 -18.750388,-18.75038 l 0,-74.99925 z"
       style="fill:#2c8c8e;fill-opacity:1;fill-rule:evenodd;stroke:none"
       id="path3100" />
    <path
       inkscape:connector-curvature="0"
       d="m 428.76721,445.30591 0,-39.16675 25.2305,0 -58.125,66.66674 -58.125,-66.66674 25.23063,0 0,39.16675 65.78887,0 z"
       style="fill:#2c8c8e;fill-opacity:1;fill-rule:evenodd;stroke:none"
       id="path3102" />
    <path
       inkscape:connector-curvature="0"
       d="m 25.091462,490.77503 c 0,-10.35562 8.394837,-18.7505 18.750387,-18.7505 l 703.749241,0 c 10.3555,0 18.75037,8.39488 18.75037,18.7505 l 0,74.99913 c 0,10.35562 -8.39487,18.75037 -18.75037,18.75037 l -703.74924,0 c -10.355551,0 -18.750388,-8.39475 -18.750388,-18.75037 l 0,-74.99913 z"
       style="fill:#7d9e5a;fill-opacity:1;fill-rule:evenodd;stroke:none"
       id="path3104" />
    <path
       inkscape:connector-curvature="0"
       d="m 428.76721,575.46203 0,-39.16662 25.2305,0 -58.125,66.66662 -58.125,-66.66662 25.23063,0 0,39.16662 65.78887,0 z"
       style="fill:#7d9e5a;fill-opacity:1;fill-rule:evenodd;stroke:none"
       id="path3106" />
    <path
       inkscape:connector-curvature="0"
       d="m 25.091462,620.77495 c 0,-10.35555 8.394837,-18.75042 18.750387,-18.75042 l 703.749241,0 c 10.3555,0 18.75037,8.39488 18.75037,18.75042 l 0,74.99923 c 0,10.35556 -8.39487,18.75039 -18.75037,18.75039 l -703.74924,0 c -10.355551,0 -18.750388,-8.39483 -18.750388,-18.75039 l 0,-74.99923 z"
       style="fill:#e99022;fill-opacity:1;fill-rule:evenodd;stroke:none"
       id="path3108" />
    <path
       inkscape:connector-curvature="0"
       d="m 25.091462,230.7749 c 0,-10.3555 8.394837,-18.75037 18.750387,-18.75037 l 703.749241,0 c 10.3555,0 18.75037,8.39487 18.75037,18.75037 l 0,74.99925 c 0,10.35563 -8.39487,18.75038 -18.75037,18.75038 l -703.74924,0 c -10.355551,0 -18.750388,-8.39475 -18.750388,-18.75037 l 0,-74.99925 z"
       style="fill:#4d7394;fill-opacity:1;fill-rule:evenodd;stroke:none"
       id="path3112" />
    <path
       inkscape:connector-curvature="0"
       d="m 428.76721,314.99328 0,-39.16662 25.2305,0 -58.125,66.66662 -58.125,-66.66662 25.23063,0 0,39.16662 65.78887,0 z"
       style="fill:#4d7394;fill-opacity:1;fill-rule:evenodd;stroke:none"
       id="path3114" />
    <path
       inkscape:connector-curvature="0"
       d="m 25.091462,360.7749 c 0,-10.3555 8.394837,-18.75037 18.750387,-18.75037 l 703.749241,0 c 10.3555,0 18.75037,8.39487 18.75037,18.75037 l 0,74.99925 c 0,10.35563 -8.39487,18.75038 -18.75037,18.75038 l -703.74924,0 c -10.355551,0 -18.750388,-8.39475 -18.750388,-18.75038 l 0,-74.99925 z"
       style="fill:#2c8c8e;fill-opacity:1;fill-rule:evenodd;stroke:none"
       id="path3116" />
    <path
       inkscape:connector-curvature="0"
       d="m 428.76721,445.30578 0,-39.16662 25.2305,0 -58.125,66.66662 -58.125,-66.66662 25.23063,0 0,39.16662 65.78887,0 z"
       style="fill:#2c8c8e;fill-opacity:1;fill-rule:evenodd;stroke:none"
       id="path3118" />
    <path
       inkscape:connector-curvature="0"
       d="m 24.466462,490.44128 c 0,-10.34388 8.385312,-18.72925 18.729137,-18.72925 l 704.885491,0 c 10.34387,0 18.72925,8.38538 18.72925,18.72925 l 0,75.35413 c 0,10.34387 -8.38538,18.72912 -18.72925,18.72912 l -704.885491,0 c -10.343825,0 -18.729137,-8.38525 -18.729137,-18.72912 l 0,-75.35413 z"
       style="fill:#7d9e5a;fill-opacity:1;fill-rule:evenodd;stroke:none"
       id="path3120" />
    <path
       inkscape:connector-curvature="0"
       d="m 428.73321,575.46216 0,-39.14175 25.2645,0 -58.20312,66.798 -58.20313,-66.798 25.26438,0 0,39.14175 65.87737,0 z"
       style="fill:#7d9e5a;fill-opacity:1;fill-rule:evenodd;stroke:none"
       id="path3122" />
    <path
       inkscape:connector-curvature="0"
       d="m 26.341462,622.02495 c 0,-10.35555 8.394837,-18.75042 18.750387,-18.75042 l 703.749241,0 c 10.3555,0 18.75037,8.39488 18.75037,18.75042 l 0,74.99923 c 0,10.35556 -8.39487,18.75039 -18.75037,18.75039 l -703.74924,0 c -10.355551,0 -18.750388,-8.39483 -18.750388,-18.75039 l 0,-74.99923 z"
       style="fill:#e99022;fill-opacity:1;fill-rule:evenodd;stroke:none"
       id="path3124" />
    <g
       id="g3126"
       transform="matrix(1.25,0,0,-1.25,34.015414,607.49918)">
      <text
         transform="matrix(1,0,0,-1,0,-18)"
         id="text3128">
        <tspan
           style="font-size:18px;font-variant:normal;font-weight:normal;writing-mode:lr-tb;fill:#ffffff;fill-opacity:1;fill-rule:nonzero;stroke:none;font-family:Delicious;-inkscape-font-specification:Delicious"
           x="0"
           y="0"
           sodipodi:role="line"
           id="tspan3130">Database (slow, persistent)</tspan>
      </text>
      <text
         transform="matrix(1,0,0,-1,235.6074,-18)"
         id="text3132">
        <tspan
           style="font-size:18px;font-variant:normal;font-weight:normal;writing-mode:lr-tb;fill:#ffffff;fill-opacity:1;fill-rule:nonzero;stroke:none;font-family:Lucida;-inkscape-font-specification:LucidaGrande"
           x="0"
           y="0"
           id="tspan3134"></tspan>
      </text>
    </g>
    <path
       inkscape:connector-curvature="0"
       d="m 291.65396,679.60272 c 0,-4.35789 -3.49775,-7.89065 -7.8125,-7.89065 -4.31475,0 -7.8125,3.53276 -7.8125,7.89065 0,4.35788 3.49775,7.89065 7.8125,7.89065 4.31475,0 7.8125,-3.53277 7.8125,-7.89065 z"
       style="fill:#ffffff;fill-opacity:1;fill-rule:evenodd;stroke:none"
       id="path3136" />
    <path
       inkscape:connector-curvature="0"
       d="m 313.37271,679.60272 c 0,-4.35789 -3.49775,-7.89065 -7.8125,-7.89065 -4.31462,0 -7.8125,3.53276 -7.8125,7.89065 0,4.35788 3.49788,7.89065 7.8125,7.89065 4.31475,0 7.8125,-3.53277 7.8125,-7.89065 z"
       style="fill:#ffffff;fill-opacity:1;fill-rule:evenodd;stroke:none"
       id="path3138" />
    <g
       id="g3140"
       transform="matrix(9.84252e-5,0,0,9.84252e-5,237.74771,650.77457)">
      <path
         inkscape:connector-curvature="0"
         d="M 0.08135986,47811.05 C 0.08135986,21405.68 21405.75,0.01257324 47811.12,0.01257324 l 3106365.88,0 c 26405,0 47811,21405.66742676 47811,47811.03742676 l 0,386977.95 c 0,26405.3 -21406,47811 -47811,47811 l -3106365.88,0 C 21405.75,482600 0.08135986,461194.3 0.08135986,434789 l 0,-386977.95 z"
         style="fill:none;stroke:#ffffff;stroke-width:101600;stroke-linecap:butt;stroke-linejoin:miter;stroke-miterlimit:8;stroke-opacity:1;stroke-dasharray:none"
         id="path3142" />
    </g>
    <g
       id="g3144"
       transform="matrix(9.84252e-5,0,0,9.84252e-5,235.09146,664.83707)">
      <path
         inkscape:connector-curvature="0"
         d="M 0,0.01257324 3238500,0.9815063"
         style="fill:none;stroke:#ffffff;stroke-width:38100;stroke-linecap:butt;stroke-linejoin:miter;stroke-miterlimit:8;stroke-opacity:1;stroke-dasharray:none"
         id="path3146" />
    </g>
    <path
       inkscape:connector-curvature="0"
       d="m 446.81021,684.21219 82.1875,0 0,-10.4688 -82.1875,0 0,10.4688 z"
       style="fill:#ffffff;fill-opacity:1;fill-rule:evenodd;stroke:none"
       id="path3148" />
    <path
       inkscape:connector-curvature="0"
       d="m 347.43521,684.21219 82.1875,0 0,-10.4688 -82.1875,0 0,10.4688 z"
       style="fill:#ffffff;fill-opacity:1;fill-rule:evenodd;stroke:none"
       id="path3150" />
    <g
       id="g3152"
       transform="matrix(1.25,0,0,-1.25,34.015414,216.24918)">
      <text
         transform="matrix(1,0,0,-1,0,-18)"
         id="text3154">
        <tspan
           style="font-size:19.20000076px;font-variant:normal;font-weight:normal;writing-mode:lr-tb;fill:#ffffff;fill-opacity:1;fill-rule:nonzero;stroke:none;font-family:Delicious;-inkscape-font-specification:Delicious"
           sodipodi:role="line"
           id="tspan3156"
           y="0"
           x="0">Load Balancer (assigns a web server)</tspan>
      </text>
      <text
         transform="matrix(1,0,0,-1,318.8196,-18)"
         id="text3158">
        <tspan
           style="font-size:18px;font-variant:normal;font-weight:normal;writing-mode:lr-tb;fill:#ffffff;fill-opacity:1;fill-rule:nonzero;stroke:none;font-family:Lucida;-inkscape-font-specification:LucidaGrande"
           x="0"
           y="0"
           id="tspan3160"></tspan>
      </text>
    </g>
    <path
       inkscape:connector-curvature="0"
       d="m 291.65396,288.97778 c 0,-4.358 -3.49775,-7.89075 -7.8125,-7.89075 -4.31475,0 -7.8125,3.53275 -7.8125,7.89075 0,4.35788 3.49775,7.89062 7.8125,7.89062 4.31475,0 7.8125,-3.53274 7.8125,-7.89062 z"
       style="fill:#ffffff;fill-opacity:1;fill-rule:evenodd;stroke:none"
       id="path3162" />
    <path
       inkscape:connector-curvature="0"
       d="m 313.37271,288.97778 c 0,-4.358 -3.49775,-7.89075 -7.8125,-7.89075 -4.31462,0 -7.8125,3.53275 -7.8125,7.89075 0,4.35788 3.49788,7.89062 7.8125,7.89062 4.31475,0 7.8125,-3.53274 7.8125,-7.89062 z"
       style="fill:#ffffff;fill-opacity:1;fill-rule:evenodd;stroke:none"
       id="path3164" />
    <g
       id="g3166"
       transform="matrix(9.84252e-5,0,0,9.84252e-5,237.74771,260.77453)">
      <path
         inkscape:connector-curvature="0"
         d="M 0.08135986,47810.92 C 0.08135986,21405.56 21405.75,-0.1124268 47811.12,-0.1124268 l 3106365.88,0 c 26405,0 47811,21405.6724268 47811,47811.0324268 l 0,386977.88 c 0,26405.4 -21406,47811.1 -47811,47811.1 l -3106365.88,0 C 21405.75,482599.9 0.08135986,461194.2 0.08135986,434788.8 l 0,-386977.88 z"
         style="fill:none;stroke:#ffffff;stroke-width:101600;stroke-linecap:butt;stroke-linejoin:miter;stroke-miterlimit:8;stroke-opacity:1;stroke-dasharray:none"
         id="path3168" />
    </g>
    <g
       id="g3170"
       transform="matrix(9.84252e-5,0,0,9.84252e-5,235.09146,274.21203)">
      <path
         inkscape:connector-curvature="0"
         d="M 0,-0.1124268 3238500,1.050293"
         style="fill:none;stroke:#ffffff;stroke-width:38100;stroke-linecap:butt;stroke-linejoin:miter;stroke-miterlimit:8;stroke-opacity:1;stroke-dasharray:none"
         id="path3172" />
    </g>
    <path
       inkscape:connector-curvature="0"
       d="m 446.81021,293.58715 82.1875,0 0,-10.46878 -82.1875,0 0,10.46878 z"
       style="fill:#ffffff;fill-opacity:1;fill-rule:evenodd;stroke:none"
       id="path3174" />
    <path
       inkscape:connector-curvature="0"
       d="m 347.43521,293.58715 82.1875,0 0,-10.46878 -82.1875,0 0,10.46878 z"
       style="fill:#ffffff;fill-opacity:1;fill-rule:evenodd;stroke:none"
       id="path3176" />
    <g
       id="g3178"
       transform="matrix(1.25,0,0,-1.25,34.015414,346.24918)">
      <text
         transform="matrix(1,0,0,-1,0,-18)"
         id="text3180">
        <tspan
           style="font-size:18px;font-variant:normal;font-weight:normal;writing-mode:lr-tb;fill:#ffffff;fill-opacity:1;fill-rule:nonzero;stroke:none;font-family:Delicious;-inkscape-font-specification:Delicious"
           x="0"
           y="0"
           sodipodi:role="line"
           id="tspan3182">Web Server (PHP assembles data)</tspan>
      </text>
      <text
         transform="matrix(1,0,0,-1,286.9704,-18)"
         id="text3184">
        <tspan
           style="font-size:18px;font-variant:normal;font-weight:normal;writing-mode:lr-tb;fill:#ffffff;fill-opacity:1;fill-rule:nonzero;stroke:none;font-family:Lucida;-inkscape-font-specification:LucidaGrande"
           x="0"
           y="0"
           id="tspan3186"></tspan>
      </text>
    </g>
    <path
       inkscape:connector-curvature="0"
       d="m 291.65396,419.21215 c 0,-4.31475 -3.49775,-7.8125 -7.8125,-7.8125 -4.31475,0 -7.8125,3.49775 -7.8125,7.8125 0,4.31463 3.49775,7.8125 7.8125,7.8125 4.31475,0 7.8125,-3.49787 7.8125,-7.8125 z"
       style="fill:#ffffff;fill-opacity:1;fill-rule:evenodd;stroke:none"
       id="path3188" />
    <path
       inkscape:connector-curvature="0"
       d="m 313.37271,419.21215 c 0,-4.31475 -3.49775,-7.8125 -7.8125,-7.8125 -4.31462,0 -7.8125,3.49775 -7.8125,7.8125 0,4.31463 3.49788,7.8125 7.8125,7.8125 4.31475,0 7.8125,-3.49787 7.8125,-7.8125 z"
       style="fill:#ffffff;fill-opacity:1;fill-rule:evenodd;stroke:none"
       id="path3190" />
    <g
       id="g3192"
       transform="matrix(9.84252e-5,0,0,9.84252e-5,237.74771,390.77465)">
      <path
         inkscape:connector-curvature="0"
         d="M 0.08135986,47811.06 C 0.08135986,21405.7 21405.75,0.02514648 47811.12,0.02514648 l 3106365.88,0 c 26405,0 47811,21405.67485352 47811,47811.03485352 l 0,386977.94 c 0,26405.3 -21406,47811 -47811,47811 l -3106365.88,0 C 21405.75,482600 0.08135986,461194.3 0.08135986,434789 l 0,-386977.94 z"
         style="fill:none;stroke:#ffffff;stroke-width:101600;stroke-linecap:butt;stroke-linejoin:miter;stroke-miterlimit:8;stroke-opacity:1;stroke-dasharray:none"
         id="path3194" />
    </g>
    <g
       id="g3196"
       transform="matrix(9.84252e-5,0,0,9.84252e-5,235.09146,404.3684)">
      <path
         inkscape:connector-curvature="0"
         d="M 0,0.02514648 3238500,1.187866"
         style="fill:none;stroke:#ffffff;stroke-width:38100;stroke-linecap:butt;stroke-linejoin:miter;stroke-miterlimit:8;stroke-opacity:1;stroke-dasharray:none"
         id="path3198" />
    </g>
    <path
       inkscape:connector-curvature="0"
       d="m 446.81021,423.89965 82.1875,0 0,-10.625 -82.1875,0 0,10.625 z"
       style="fill:#ffffff;fill-opacity:1;fill-rule:evenodd;stroke:none"
       id="path3200" />
    <path
       inkscape:connector-curvature="0"
       d="m 347.43521,423.89965 82.1875,0 0,-10.625 -82.1875,0 0,10.625 z"
       style="fill:#ffffff;fill-opacity:1;fill-rule:evenodd;stroke:none"
       id="path3202" />
    <g
       id="g3204"
       transform="matrix(1.25,0,0,-1.25,34.015414,477.49918)">
      <text
         transform="matrix(1,0,0,-1,0,-18)"
         id="text3206">
        <tspan
           style="font-size:18px;font-variant:normal;font-weight:normal;writing-mode:lr-tb;fill:#ffffff;fill-opacity:1;fill-rule:nonzero;stroke:none;font-family:Delicious;-inkscape-font-specification:Delicious"
           x="0"
           y="0"
           sodipodi:role="line"
           id="tspan3208">Memcache (fast, simple)</tspan>
      </text>
      <text
         transform="matrix(1,0,0,-1,210.9186,-18)"
         id="text3210">
        <tspan
           style="font-size:18px;font-variant:normal;font-weight:normal;writing-mode:lr-tb;fill:#ffffff;fill-opacity:1;fill-rule:nonzero;stroke:none;font-family:Lucida;-inkscape-font-specification:LucidaGrande"
           x="0"
           y="0"
           id="tspan3212"></tspan>
      </text>
    </g>
    <path
       inkscape:connector-curvature="0"
       d="m 291.65396,549.36841 c 0,-4.31475 -3.49775,-7.8125 -7.8125,-7.8125 -4.31475,0 -7.8125,3.49775 -7.8125,7.8125 0,4.31475 3.49775,7.8125 7.8125,7.8125 4.31475,0 7.8125,-3.49775 7.8125,-7.8125 z"
       style="fill:#ffffff;fill-opacity:1;fill-rule:evenodd;stroke:none"
       id="path3214" />
    <path
       inkscape:connector-curvature="0"
       d="m 313.37271,549.36841 c 0,-4.31475 -3.49775,-7.8125 -7.8125,-7.8125 -4.31462,0 -7.8125,3.49775 -7.8125,7.8125 0,4.31475 3.49788,7.8125 7.8125,7.8125 4.31475,0 7.8125,-3.49775 7.8125,-7.8125 z"
       style="fill:#ffffff;fill-opacity:1;fill-rule:evenodd;stroke:none"
       id="path3216" />
    <g
       id="g3218"
       transform="matrix(9.84252e-5,0,0,9.84252e-5,237.74771,520.77453)">
      <path
         inkscape:connector-curvature="0"
         d="M 0.08135986,47811.12 C 0.08135986,21405.75 21405.75,0.08135986 47811.12,0.08135986 l 3106365.88,0 c 26405,0 47811,21405.66864014 47811,47811.03864014 l 0,386977.88 c 0,26405.4 -21406,47811.1 -47811,47811.1 l -3106365.88,0 C 21405.75,482600.1 0.08135986,461194.4 0.08135986,434789 l 0,-386977.88 z"
         style="fill:none;stroke:#ffffff;stroke-width:101600;stroke-linecap:butt;stroke-linejoin:miter;stroke-miterlimit:8;stroke-opacity:1;stroke-dasharray:none"
         id="path3220" />
    </g>
    <g
       id="g3222"
       transform="matrix(9.84252e-5,0,0,9.84252e-5,235.09146,534.68091)">
      <path
         inkscape:connector-curvature="0"
         d="M 0,-0.08728027 3238500,0.8816528"
         style="fill:none;stroke:#ffffff;stroke-width:38100;stroke-linecap:butt;stroke-linejoin:miter;stroke-miterlimit:8;stroke-opacity:1;stroke-dasharray:none"
         id="path3224" />
    </g>
    <path
       inkscape:connector-curvature="0"
       d="m 446.81021,554.05591 82.1875,0 0,-10.46882 -82.1875,0 0,10.46882 z"
       style="fill:#ffffff;fill-opacity:1;fill-rule:evenodd;stroke:none"
       id="path3226" />
    <path
       inkscape:connector-curvature="0"
       d="m 347.43521,554.05591 82.1875,0 0,-10.46882 -82.1875,0 0,10.46882 z"
       style="fill:#ffffff;fill-opacity:1;fill-rule:evenodd;stroke:none"
       id="path3228" />
  </g>
</svg>
